<?xml version="1.0" encoding="utf-8"?>
<!-- Generator: Adobe Illustrator 27.9.0, SVG Export Plug-In . SVG Version: 6.00 Build 0)  -->
<svg version="1.1" id="레이어_1" xmlns="http://www.w3.org/2000/svg" xmlns:xlink="http://www.w3.org/1999/xlink" x="0px"
	 y="0px" viewBox="0 0 34 52" style="enable-background:new 0 0 34 52;" xml:space="preserve">
<style type="text/css">
	.st0{fill:#FFFFFF;}
</style>
<g>
	<g>
		<polygon class="st0" points="13.1,0.8 13.1,8.2 7.4,8.2 7.4,15.6 12.8,15.6 12.8,23.6 0.3,23.6 0.3,51.5 33.3,51.5 33.3,24.3 
			20.3,24.3 20.3,16.1 26.6,16.1 26.6,8.8 20.9,8.8 20.9,0.8 		"/>
		<g>
			<path d="M34,52H0V23.1h34V52z M1.5,50.5h31V24.6h-31V50.5z"/>
			<path d="M27.3,16.7H6.7V8h20.5V16.7z M8.2,15.2h17.5V9.5H8.2V15.2z"/>
			<polygon points="21.6,8.9 20.1,8.9 20.1,1.5 13.9,1.5 13.9,8.9 12.4,8.9 12.4,0 21.6,0 			"/>
			<rect x="12.4" y="16.3" width="1.5" height="7.4"/>
			<rect x="20.1" y="16.3" width="1.5" height="7.4"/>
		</g>
	</g>
</g>
</svg>
