<?xml version="1.0" encoding="utf-8"?>
<!-- Generator: Adobe Illustrator 27.9.0, SVG Export Plug-In . SVG Version: 6.00 Build 0)  -->
<svg version="1.1" id="레이어_1" xmlns="http://www.w3.org/2000/svg" xmlns:xlink="http://www.w3.org/1999/xlink" x="0px"
	 y="0px" viewBox="0 0 216 250" style="enable-background:new 0 0 216 250;" xml:space="preserve">
<style type="text/css">
	.st0{fill:#FFFFFF;}
</style>
<g>
	<g>
		<polygon class="st0" points="6.7,17.2 6.7,249.5 204.7,249.5 204.7,16.5 		"/>
		<g>
			<g>
				<g>
					<g>
						<g>
							<rect x="0" y="8.7" width="211.8" height="1.5"/>
							<rect x="0" y="15.7" width="211.8" height="1.5"/>
						</g>
						<polygon points="205.6,250 6.1,250 6.1,15.7 7.6,15.7 7.6,248.5 204.2,248.5 204.2,15.7 205.6,15.7 						"/>
					</g>
					<rect x="7.3" y="78.4" width="197.3" height="1.5"/>
					<rect x="111" y="84.6" width="38.4" height="1.5"/>
					<rect x="118.3" y="90.3" width="23.7" height="1.5"/>
					<rect x="124.5" y="96" width="11.4" height="1.5"/>
				</g>
				<g>
					<rect x="16.1" y="0" width="10.5" height="1.5"/>
					<rect x="20.6" y="1.2" width="1.5" height="8.5"/>
				</g>
				<g>
					<rect x="156" y="0" width="10.5" height="1.5"/>
					<rect x="160.5" y="1.2" width="1.5" height="8.5"/>
				</g>
				<g>
					<rect x="214.5" y="220.3" width="1.5" height="10.5"/>
					<rect x="205.1" y="224.8" width="9.9" height="1.5"/>
				</g>
			</g>
		</g>
	</g>
</g>
</svg>
