<?xml version="1.0" encoding="utf-8"?>
<!-- Generator: Adobe Illustrator 27.9.0, SVG Export Plug-In . SVG Version: 6.00 Build 0)  -->
<svg version="1.1" id="레이어_1" xmlns="http://www.w3.org/2000/svg" xmlns:xlink="http://www.w3.org/1999/xlink" x="0px"
	 y="0px" viewBox="0 0 66 132" style="enable-background:new 0 0 66 132;" xml:space="preserve">
<style type="text/css">
	.st0{fill:#FFFFFF;}
</style>
<g>
	<g>
		<path class="st0" d="M8.1,6.6v90c0,0,1.7,14.6,12.8,19.9c11.1,5.4,22,1.2,25.7-1.2c3.7-2.4,9-5.9,11.1-16.8
			c2.1-10.9,0.1-92.3,0.1-92.3L8.1,6.6z"/>
		<g>
			<g>
				<g>
					<polygon points="8.8,81.7 7.8,80.7 57,26.4 58,27.4 					"/>
					<rect x="3.9" y="0" width="58.2" height="1.5"/>
					<rect x="3.9" y="5.6" width="58.2" height="1.5"/>
					<path d="M33,120.3c-14.2,0-25.7-11.6-25.7-25.9V6.9h1.5v87.5c0,13.5,10.9,24.4,24.3,24.4c13.4,0,24.3-11,24.3-24.4V6.9h1.5
						v87.5C58.7,108.7,47.2,120.3,33,120.3z"/>
					<rect x="11.5" y="106.2" width="43.1" height="1.5"/>
					<rect x="8" y="25.4" width="50" height="1.5"/>
					<rect x="8.3" y="81.4" width="49.4" height="1.5"/>
					<polygon points="57.2,81.7 8,27.4 9,26.4 58.3,80.7 					"/>
				</g>
				<g>
					<g>
						<rect x="1.1" y="95.4" width="6.7" height="1.5"/>
						<rect x="0" y="92" width="1.5" height="8.3"/>
					</g>
					<g>
						<rect x="58.1" y="18.7" width="6.6" height="1.5"/>
						<rect x="64.5" y="15.3" width="1.5" height="8.3"/>
					</g>
				</g>
			</g>
			<rect x="32.3" y="119.6" width="1.5" height="12.4"/>
		</g>
	</g>
</g>
</svg>
