<?xml version="1.0" encoding="utf-8"?>
<!-- Generator: Adobe Illustrator 27.9.0, SVG Export Plug-In . SVG Version: 6.00 Build 0)  -->
<svg version="1.1" id="레이어_1" xmlns="http://www.w3.org/2000/svg" xmlns:xlink="http://www.w3.org/1999/xlink" x="0px"
	 y="0px" viewBox="0 0 60 60" style="enable-background:new 0 0 60 60;" xml:space="preserve">
<style type="text/css">
	.st0{fill:#FFFFFF;}
</style>
<g>
	<path class="st0" d="M59,0.8v17.3h-7.9c0,0,2.7,15-1.1,21.7S39.8,51.2,39.8,51.2l9.8,8.2l-47.7,0l11.8-8c0,0-10.7-10.1-12.7-19.2
		C-0.9,23,2.9,2.8,25.1,1S59,0.8,59,0.8z"/>
	<g>
		<path d="M26.6,55.3C11.9,55.3,0,42.9,0,27.7C0,12.4,11.9,0,26.6,0c0,0,0,0,0.1,0c0,0,0,0,0.1,0h32.5C59.6,0,60,0.4,60,0.8v17.4
			c0,0.4-0.4,0.8-0.8,0.8h-7.4c0.9,2.8,1.4,5.8,1.4,8.7C53.2,42.9,41.2,55.3,26.6,55.3z M26.6,1.6c-13.8,0-25,11.7-25,26.1
			s11.2,26.1,25,26.1s25-11.7,25-26.1c0-3.1-0.6-6.2-1.6-9.2c-0.1-0.2-0.1-0.5,0.1-0.7c0.1-0.2,0.4-0.3,0.6-0.3h7.7V1.6H26.8H26.6
			C26.7,1.6,26.6,1.6,26.6,1.6L26.6,1.6z M26.6,36.8c-4.9,0-8.8-4.1-8.8-9.2s4-9.2,8.8-9.2c4.9,0,8.8,4.1,8.8,9.2
			C35.4,32.7,31.5,36.8,26.6,36.8z M26.6,20.1c-4,0-7.3,3.4-7.3,7.6s3.3,7.6,7.3,7.6s7.3-3.4,7.3-7.6C33.9,23.5,30.6,20.1,26.6,20.1
			z"/>
		<g>
			<path d="M50.1,60h-48c-0.3,0-0.6-0.2-0.7-0.6c-0.1-0.3,0-0.7,0.3-0.9l11.5-8.2c0.4-0.2,0.8-0.2,1.1,0.2c0.2,0.4,0.2,0.8-0.2,1.1
				l-9.5,6.7h43L38.7,52c-0.4-0.3-0.4-0.7-0.2-1.1c0.3-0.4,0.7-0.4,1.1-0.2l10.9,7.7c0.3,0.2,0.4,0.6,0.3,0.9
				C50.8,59.8,50.5,60,50.1,60z"/>
		</g>
	</g>
</g>
</svg>
