<?xml version="1.0" encoding="utf-8"?>
<!-- Generator: Adobe Illustrator 27.9.0, SVG Export Plug-In . SVG Version: 6.00 Build 0)  -->
<svg version="1.1" id="레이어_1" xmlns="http://www.w3.org/2000/svg" xmlns:xlink="http://www.w3.org/1999/xlink" x="0px"
	 y="0px" viewBox="0 0 126 60" style="enable-background:new 0 0 126 60;" xml:space="preserve">
<style type="text/css">
	.st0{fill:#FFFFFF;}
</style>
<g>
	<g>
		<path class="st0" d="M86.6,0.9v17.3h-8c0,0,2.7,15-1.1,21.7c-3.8,6.7-10.2,11.4-10.2,11.4l9.8,8.2l-47.9,0.1l11.7-8
			c0,0-10.8-10.1-12.7-19.2c-1.9-9.2,2-29.4,24.3-31.2C74.9-0.6,86.6,0.9,86.6,0.9z"/>
		<g>
			<polygon points="118.8,7.1 111.7,5 111.7,8.3 87.4,8.3 87.4,10 111.7,10 111.7,13.3 118.8,11.2 126,9.2 			"/>
		</g>
		<g>
			<path d="M77.6,60H29.4c-0.3,0-0.6-0.2-0.8-0.6c-0.1-0.3,0-0.7,0.3-0.9l11.6-8.2c0.4-0.2,0.8-0.2,1.1,0.2c0.2,0.4,0.2,0.8-0.2,1.1
				l-9.5,6.7h43.3l-9-6.4c-0.4-0.3-0.4-0.7-0.2-1.1c0.3-0.4,0.7-0.4,1.1-0.2l11,7.8c0.3,0.2,0.4,0.6,0.3,0.9
				C78.3,59.8,78,60,77.6,60z"/>
		</g>
		<g>
			<g>
				<path d="M53.9,36.8c4.9,0,8.9-4.1,8.9-9.2s-4-9.2-8.9-9.2c-4.3,0-7.8,3.1-8.7,7.3l1.5,0.4c0.7-3.5,3.6-6.1,7.2-6.1
					c4,0,7.3,3.4,7.3,7.6s-3.3,7.6-7.3,7.6c-3,0-5.6-1.9-6.7-4.6L45.7,31C47,34.4,50.2,36.8,53.9,36.8z"/>
				<path d="M86.8,0H54.1c0,0,0,0-0.1,0h-0.1C39.5,0,27.7,11.9,27.2,26.7h1.6C29.3,12.8,40.4,1.6,53.9,1.6l0,0H54h0.1H86v15.8h-7.8
					c-0.3,0-0.5,0.1-0.6,0.3c-0.1,0.2-0.2,0.5-0.1,0.7c1.1,3,1.6,6.1,1.6,9.2c0,14.4-11.3,26.1-25.2,26.1c-13,0-23.8-10.3-25-23.5
					h-1.6c1.3,14,12.7,25.1,26.6,25.1c14.7,0,26.7-12.4,26.7-27.7c0-2.9-0.5-5.9-1.4-8.7h7.5c0.4,0,0.8-0.4,0.8-0.8V0.8
					C87.5,0.4,87.2,0,86.8,0z"/>
			</g>
			<polygon points="44.4,26.4 37.2,24.4 37.2,27.6 0,27.6 0,29.4 37.2,29.4 37.2,32.6 44.4,30.5 51.6,28.5 			"/>
		</g>
	</g>
</g>
</svg>
