<?xml version="1.0" encoding="utf-8"?>
<!-- Generator: Adobe Illustrator 27.9.0, SVG Export Plug-In . SVG Version: 6.00 Build 0)  -->
<svg version="1.1" id="레이어_1" xmlns="http://www.w3.org/2000/svg" xmlns:xlink="http://www.w3.org/1999/xlink" x="0px"
	 y="0px" viewBox="0 0 1110 894" style="enable-background:new 0 0 1110 894;" xml:space="preserve">
<style type="text/css">
	.st0{fill:#FFFFFF;}
</style>
<g>
	<polygon class="st0" points="177.5,151.4 177.5,690.6 130,690.6 130,673 76.7,673 76.7,762.6 128.7,762.6 128.7,743.6 177.8,743.6 
		177.8,893.6 876.5,893.6 876.5,152.4 	"/>
	<g>
		<path d="M877.5,894H176.9V151h700.7V894z M178.4,892.5H876v-740H178.4V892.5z"/>
		<g>
			<rect x="197.1" y="316.3" width="656.7" height="1.5"/>
			<rect x="501.2" y="326" width="185" height="1.5"/>
			<rect x="536.2" y="335.6" width="115" height="1.5"/>
			<rect x="557.4" y="345.3" width="72.5" height="1.5"/>
			<rect x="575.3" y="355" width="36.7" height="1.5"/>
			<g>
				<rect x="160.7" y="229.5" width="16.9" height="1.5"/>
				<rect x="0" y="229.5" width="151.5" height="1.5"/>
				<rect x="160" y="218.8" width="1.5" height="22.9"/>
				<rect x="150.2" y="218.8" width="1.5" height="22.9"/>
			</g>
			<g>
				<rect x="326.9" y="128.1" width="1.5" height="23.3"/>
				<rect x="326.9" y="0" width="1.5" height="118.9"/>
				<rect x="316.2" y="127.3" width="22.9" height="1.5"/>
				<rect x="316.2" y="117.6" width="22.9" height="1.5"/>
			</g>
			<g>
				<rect x="519.7" y="128.1" width="1.5" height="23.3"/>
				<rect x="519.7" y="0" width="1.5" height="118.9"/>
				<rect x="509" y="127.3" width="22.9" height="1.5"/>
				<rect x="509" y="117.6" width="22.9" height="1.5"/>
			</g>
			<g>
				<rect x="715.1" y="128.1" width="1.5" height="23.3"/>
				<rect x="715.1" y="0" width="1.5" height="118.9"/>
				<rect x="704.4" y="127.3" width="22.9" height="1.5"/>
				<rect x="704.4" y="117.6" width="22.9" height="1.5"/>
			</g>
			<g>
				<rect x="774.4" y="128.1" width="1.5" height="23.3"/>
				<rect x="774.4" y="0" width="1.5" height="118.9"/>
				<rect x="763.6" y="127.3" width="22.9" height="1.5"/>
				<rect x="763.6" y="117.6" width="22.9" height="1.5"/>
			</g>
			<g>
				<rect x="833.6" y="128.1" width="1.5" height="23.3"/>
				<rect x="833.6" y="0" width="1.5" height="118.9"/>
				<rect x="822.9" y="127.3" width="22.9" height="1.5"/>
				<rect x="822.9" y="117.6" width="22.9" height="1.5"/>
			</g>
			<g>
				<rect x="876.7" y="229.4" width="24.3" height="1.5"/>
				<rect x="910.3" y="229.4" width="199.7" height="1.5"/>
				<rect x="900.3" y="218.7" width="1.5" height="22.9"/>
				<rect x="910" y="218.7" width="1.5" height="22.9"/>
			</g>
			<g>
				<rect x="876.7" y="289" width="24.3" height="1.5"/>
				<rect x="910.3" y="289" width="199.7" height="1.5"/>
				<rect x="900.3" y="278.3" width="1.5" height="22.9"/>
				<rect x="910" y="278.3" width="1.5" height="22.9"/>
			</g>
			<g>
				<rect x="876.7" y="725.4" width="24.3" height="1.5"/>
				<rect x="910.3" y="725.4" width="199.7" height="1.5"/>
				<rect x="900.3" y="714.7" width="1.5" height="22.9"/>
				<rect x="910" y="714.7" width="1.5" height="22.9"/>
			</g>
			<g>
				<rect x="876.7" y="813.2" width="24.3" height="1.5"/>
				<rect x="910.3" y="813.2" width="199.7" height="1.5"/>
				<rect x="900.3" y="802.5" width="1.5" height="22.9"/>
				<rect x="910" y="802.5" width="1.5" height="22.9"/>
			</g>
			<g>
				<rect x="152.1" y="502.8" width="104.8" height="1.5"/>
				<rect x="0" y="502.8" width="142.9" height="1.5"/>
				<rect x="151.4" y="492.1" width="1.5" height="22.9"/>
				<rect x="141.6" y="492.1" width="1.5" height="22.9"/>
			</g>
			<g>
				<rect x="152.1" y="813.4" width="25.6" height="1.5"/>
				<rect x="69.2" y="813.4" width="73.7" height="1.5"/>
				<rect x="151.4" y="802.6" width="1.5" height="22.9"/>
				<rect x="141.6" y="802.6" width="1.5" height="22.9"/>
			</g>
			<g>
				<rect x="575.4" y="116.8" width="86.3" height="1.5"/>
				<rect x="575.4" y="123.1" width="86.3" height="1.5"/>
				<g>
					<rect x="583" y="124.1" width="1.5" height="28.1"/>
					<rect x="652.7" y="124.1" width="1.5" height="28.1"/>
				</g>
			</g>
			<path d="M130,763.1H76.2v-91.6H130V763.1z M77.7,761.6h50.8V673H77.7V761.6z"/>
			<rect x="51" y="716.6" transform="matrix(0.5014 -0.8652 0.8652 0.5014 -569.2198 446.8342)" width="104.1" height="1.5"/>
			<path d="M247.6,744.9h-118v-1.5h118c14.4,0,26.1-11.7,26.1-26.1s-11.7-26.1-26.1-26.1h-118v-1.5h118c15.2,0,27.6,12.4,27.6,27.6
				S262.8,744.9,247.6,744.9z"/>
			<g>
				<path d="M103.6,704.2h-3.9v-8.8h-7.2v8.8h-3.9v-21.6h3.9v8.6h7.2v-8.6h3.9V704.2z"/>
			</g>
			<g>
				<path d="M118.3,752.5h-10.4v-21.6h10v4h-6.1v4.8h5.7v3.9h-5.7v4.9h6.5V752.5z"/>
			</g>
		</g>
	</g>
</g>
</svg>
