<?xml version="1.0" encoding="utf-8"?>
<!-- Generator: Adobe Illustrator 27.9.0, SVG Export Plug-In . SVG Version: 6.00 Build 0)  -->
<svg version="1.1" id="레이어_1" xmlns="http://www.w3.org/2000/svg" xmlns:xlink="http://www.w3.org/1999/xlink" x="0px"
	 y="0px" viewBox="0 0 374 510" style="enable-background:new 0 0 374 510;" xml:space="preserve">
<style type="text/css">
	.st0{fill:#FFFFFF;}
</style>
<g>
	<g>
		<path class="st0" d="M46.2,34.1v383.6c0,0,11.6,38.3,85.7,51c0,0,53.6,12.4,119.8-2.2c0,0,60.1-11.9,75.2-48.9V33.5L46.2,34.1z"/>
		<g>
			<rect x="190.9" y="33.9" width="1.5" height="125.8"/>
			<g>
				<g>
					<path d="M186.6,474.3c-34.2,0-67.3-5.7-93.1-16c-25.7-10.3-42.5-24.4-47.4-39.9l-0.3-1h281.7l-0.3,1
						c-4.9,15.5-21.8,29.6-47.4,39.9C254,468.7,220.9,474.3,186.6,474.3z M47.9,419c10.9,30.8,70.1,53.8,138.8,53.8
						c68.6,0,127.9-23.1,138.8-53.8H47.9z"/>
				</g>
				<polygon points="327.6,417.6 326.1,417.6 326.1,34.5 47.2,34.5 47.2,417.6 45.7,417.6 45.7,33 327.6,33 				"/>
			</g>
			<g>
				<rect x="186.1" y="473.6" width="1.5" height="13"/>
				<rect x="186.1" y="493.3" width="1.5" height="16.7"/>
				<rect x="178.5" y="485.8" width="16.7" height="1.5"/>
				<rect x="178.5" y="492.9" width="16.7" height="1.5"/>
			</g>
			<g>
				<rect x="119" y="465.7" width="1.5" height="10.9"/>
				<rect x="119" y="483.3" width="1.5" height="26.7"/>
				<rect x="111.4" y="475.9" width="16.7" height="1.5"/>
				<rect x="111.4" y="483" width="16.7" height="1.5"/>
			</g>
			<g>
				<rect x="33.4" y="365.5" width="12.4" height="1.5"/>
				<rect x="0" y="365.5" width="26.7" height="1.5"/>
				<rect x="32.7" y="357.9" width="1.5" height="16.7"/>
				<rect x="25.6" y="357.9" width="1.5" height="16.7"/>
			</g>
			<g>
				<rect x="33.4" y="114.4" width="12.4" height="1.5"/>
				<rect x="0" y="114.4" width="26.7" height="1.5"/>
				<rect x="32.7" y="106.8" width="1.5" height="16.7"/>
				<rect x="25.6" y="106.8" width="1.5" height="16.7"/>
			</g>
			<g>
				<rect x="327.1" y="84.5" width="13.5" height="1.5"/>
				<rect x="347.3" y="84.5" width="26.7" height="1.5"/>
				<rect x="339.8" y="76.9" width="1.5" height="16.7"/>
				<rect x="346.9" y="76.9" width="1.5" height="16.7"/>
			</g>
			<g>
				<rect x="68.2" y="21.1" width="1.5" height="12.3"/>
				<rect x="68.2" y="0" width="1.5" height="14.4"/>
				<rect x="60.6" y="20.4" width="16.7" height="1.5"/>
				<rect x="60.6" y="13.3" width="16.7" height="1.5"/>
			</g>
			<g>
				<rect x="113.4" y="21.1" width="1.5" height="12.3"/>
				<rect x="113.4" y="0" width="1.5" height="14.4"/>
				<rect x="105.8" y="20.4" width="16.7" height="1.5"/>
				<rect x="105.8" y="13.3" width="16.7" height="1.5"/>
			</g>
			<g>
				<rect x="157.1" y="21.1" width="1.5" height="12.3"/>
				<rect x="157.1" y="0" width="1.5" height="14.4"/>
				<rect x="149.5" y="20.4" width="16.7" height="1.5"/>
				<rect x="149.5" y="13.3" width="16.7" height="1.5"/>
			</g>
			<g>
				<rect x="190.9" y="21.1" width="1.5" height="12.3"/>
				<rect x="190.9" y="0" width="1.5" height="14.4"/>
				<rect x="183.3" y="20.4" width="16.7" height="1.5"/>
				<rect x="183.3" y="13.3" width="16.7" height="1.5"/>
			</g>
			<g>
				<rect x="213.3" y="21.1" width="1.5" height="12.3"/>
				<rect x="213.3" y="0" width="1.5" height="14.4"/>
				<rect x="205.7" y="20.4" width="16.7" height="1.5"/>
				<rect x="205.7" y="13.3" width="16.7" height="1.5"/>
			</g>
			<g>
				<rect x="289.9" y="21.1" width="1.5" height="12.3"/>
				<rect x="289.9" y="0" width="1.5" height="14.4"/>
				<rect x="282.2" y="20.4" width="16.7" height="1.5"/>
				<rect x="282.2" y="13.3" width="16.7" height="1.5"/>
			</g>
			<g>
				<rect x="311.7" y="21.1" width="1.5" height="12.3"/>
				<rect x="311.7" y="0" width="1.5" height="14.4"/>
				<rect x="304.1" y="20.4" width="16.7" height="1.5"/>
				<rect x="304.1" y="13.3" width="16.7" height="1.5"/>
			</g>
			<g>
				<rect x="228.1" y="12.1" width="51.2" height="1.5"/>
				<rect x="228.1" y="15.9" width="51.2" height="1.5"/>
				<g>
					<rect x="233.4" y="17.3" width="1.5" height="16.4"/>
					<rect x="272.6" y="17.3" width="1.5" height="16.4"/>
				</g>
			</g>
			<g>
				<g>
					<path d="M178.5,166.5c-2.4,0-4.8-0.6-6.6-1.9c-1.9-1.3-2.9-3-2.9-4.9c0-1.9,1-3.6,2.9-4.9c3.7-2.5,9.6-2.5,13.3,0l7.1,4.9
						l-7.1,4.9C183.3,165.9,180.9,166.5,178.5,166.5z M178.5,154.4c-2.1,0-4.2,0.5-5.8,1.6c-1.4,1-2.2,2.3-2.2,3.7
						c0,1.4,0.8,2.7,2.2,3.7c3.1,2.2,8.4,2.2,11.5,0l5.3-3.7l-5.3-3.7C182.7,154.9,180.6,154.4,178.5,154.4z"/>
				</g>
				<g>
					<path d="M204.7,166.5c-2.4,0-4.8-0.6-6.6-1.9l-7.1-4.9l7.1-4.9c3.7-2.5,9.6-2.5,13.3,0c1.9,1.3,2.9,3,2.9,4.9
						c0,1.9-1,3.6-2.9,4.9C209.5,165.9,207.1,166.5,204.7,166.5z M198.9,163.4c3.1,2.2,8.4,2.2,11.5,0c1.4-1,2.2-2.3,2.2-3.7
						c0-1.4-0.8-2.7-2.2-3.7c-3.1-2.2-8.4-2.2-11.5,0l-5.3,3.7L198.9,163.4z"/>
				</g>
			</g>
		</g>
	</g>
</g>
</svg>
