<?xml version="1.0" encoding="utf-8"?>
<!-- Generator: Adobe Illustrator 27.9.0, SVG Export Plug-In . SVG Version: 6.00 Build 0)  -->
<svg version="1.1" id="레이어_1" xmlns="http://www.w3.org/2000/svg" xmlns:xlink="http://www.w3.org/1999/xlink" x="0px"
	 y="0px" viewBox="0 0 34 182" style="enable-background:new 0 0 34 182;" xml:space="preserve">
<style type="text/css">
	.st0{fill:#FFFFFF;}
</style>
<g>
	<g>
		<rect x="0.3" y="55.7" class="st0" width="33.7" height="68.9"/>
		<g>
			<g>
				<path d="M34,125H0V55h34V125z M1.5,123.5h31v-67h-31V123.5z"/>
				<g>
					<rect x="0.9" y="68" width="11.2" height="1.5"/>
					<rect x="0.9" y="78.6" width="11.2" height="1.5"/>
					<rect x="0.9" y="89.3" width="11.2" height="1.5"/>
					<rect x="0.9" y="99.9" width="11.2" height="1.5"/>
					<rect x="0.9" y="110.5" width="11.2" height="1.5"/>
				</g>
			</g>
			<g>
				<rect x="16.3" y="124.8" width="1.5" height="17.1"/>
				<rect x="16.3" y="152.2" width="1.5" height="29.8"/>
				<rect x="6.4" y="141.8" width="21.2" height="1.5"/>
				<rect x="6.4" y="151.9" width="21.2" height="1.5"/>
			</g>
			<g>
				<rect x="16.3" y="40" width="1.5" height="15.6"/>
				<rect x="16.3" y="0" width="1.5" height="29.8"/>
				<rect x="6.4" y="38.8" width="21.2" height="1.5"/>
				<rect x="6.4" y="28.7" width="21.2" height="1.5"/>
			</g>
		</g>
	</g>
</g>
</svg>
