<?xml version="1.0" encoding="utf-8"?>
<!-- Generator: Adobe Illustrator 27.9.0, SVG Export Plug-In . SVG Version: 6.00 Build 0)  -->
<svg version="1.1" id="레이어_1" xmlns="http://www.w3.org/2000/svg" xmlns:xlink="http://www.w3.org/1999/xlink" x="0px"
	 y="0px" viewBox="0 0 138 122" style="enable-background:new 0 0 138 122;" xml:space="preserve">
<style type="text/css">
	.st0{fill:#FFFFFF;}
</style>
<g>
	<g>
		<polygon class="st0" points="42.1,25.1 42.1,103.5 94.1,103.5 94.1,25.5 		"/>
		<g>
			<g>
				<g>
					<path d="M94.8,103.9H41.4V24.8h53.4V103.9z M42.9,102.4h50.4V26.3H42.9V102.4z"/>
					<g>
						<rect x="42.8" y="43.4" width="51" height="1.5"/>
						<rect x="42.8" y="83.8" width="50.8" height="1.5"/>
					</g>
				</g>
				<g>
					<polygon points="93.3,84.6 42,44.8 42.9,43.6 94.2,83.5 					"/>
					<polygon points="42.9,84.1 42,83 93,43.4 93.9,44.5 					"/>
					<path d="M69.2,25.2h-1.5V6.1c0-3.3,2.8-6.1,6.1-6.1C77.2,0,80,2.7,80,6.1h-1.5c0-2.5-2.1-4.6-4.6-4.6c-2.6,0-4.6,2.1-4.6,4.6
						V25.2z"/>
					<g>
						<rect x="0" y="33.7" width="41.6" height="1.5"/>
						<rect x="34" y="29.7" width="1.5" height="9.4"/>
					</g>
					<g>
						<rect x="35.2" y="94" width="6.4" height="1.5"/>
						<rect x="34" y="90" width="1.5" height="9.4"/>
					</g>
					<g>
						<polygon points="133.9,121.5 132.4,121.5 132.4,95.5 94.5,95.5 94.5,94 133.9,94 						"/>
					</g>
					<rect x="128.4" y="120.5" width="9.6" height="1.5"/>
				</g>
			</g>
		</g>
	</g>
</g>
</svg>
