<?xml version="1.0" encoding="utf-8"?>
<!-- Generator: Adobe Illustrator 27.9.0, SVG Export Plug-In . SVG Version: 6.00 Build 0)  -->
<svg version="1.1" id="레이어_1" xmlns="http://www.w3.org/2000/svg" xmlns:xlink="http://www.w3.org/1999/xlink" x="0px"
	 y="0px" viewBox="0 0 72 72" style="enable-background:new 0 0 72 72;" xml:space="preserve">
<style type="text/css">
	.st0{fill:#FFFFFF;}
</style>
<g>
	<g>
		<path class="st0" d="M45.2,35.3c0,0-10.5,2.6-13.4,9.9c-2.9,7.3-2,17.2,5.5,22.8c7.5,5.6,17.8,2.6,21.3,0.6s6-6,7.1-8.4
			c1-2.4,1.1-6.9,1.1-6.9h4.4L71.4,35L45.2,35.3z"/>
		<path d="M48.4,60v-1.5c3,0,5.5-2.4,5.5-5.4c0-3-2.5-5.4-5.5-5.4v-1.5c3.9,0,7,3.1,7,6.9C55.4,57,52.3,60,48.4,60z"/>
		<g>
			<path d="M48.4,34.4c-10.1,0-18.4,7.7-19.1,17.4h1.5c0.7-8.9,8.4-15.9,17.6-15.9h22.1V52h-4.5l0,0.8c0,0.1,0,0.2,0,0.2
				c0,0.1,0,0.1,0,0.2c0,9.6-7.9,17.3-17.7,17.3c-9.2,0-16.8-7-17.6-15.8h-1.5c0.8,9.7,9,17.3,19.1,17.3c10.5,0,19-8.3,19.2-18.5H72
				V34.4H48.4z"/>
		</g>
		<polygon class="st0" points="6.8,12.3 18.4,1.1 30,12.4 30,35.7 6.7,35.6 		"/>
		<g>
			<polygon points="35.7,19 18.4,2.1 1,19 0,18 18.4,0 36.7,18 			"/>
			<path d="M30.5,36.3H6.3V12.5h24.2V36.3z M7.7,34.8H29V14H7.7V34.8z"/>
			<polygon points="28.9,22.6 20.1,14 21.2,13 29.9,21.6 			"/>
			<polygon points="15,36.3 6.2,27.7 7.2,26.7 16,35.3 			"/>
			<polygon points="29,29.3 13.1,13.6 14.1,12.6 30.1,28.2 			"/>
			<polygon points="22.1,36 6.2,20.4 7.2,19.4 23.2,35 			"/>
			<polygon points="28.5,35.9 6.8,14.7 7.8,13.6 29.5,34.9 			"/>
		</g>
		<polygon points="37.6,54 17.6,54 17.6,36 19.1,36 19.1,52.5 37.6,52.5 		"/>
		<polygon points="36.6,53.2 36.6,50.2 42.9,51.7 49.2,53.2 42.9,54.7 36.6,56.2 		"/>
	</g>
</g>
</svg>
