<?xml version="1.0" encoding="utf-8"?>
<!-- Generator: Adobe Illustrator 27.9.0, SVG Export Plug-In . SVG Version: 6.00 Build 0)  -->
<svg version="1.1" id="레이어_1" xmlns="http://www.w3.org/2000/svg" xmlns:xlink="http://www.w3.org/1999/xlink" x="0px"
	 y="0px" viewBox="0 0 180 514" style="enable-background:new 0 0 180 514;" xml:space="preserve">
<style type="text/css">
	.st0{fill:#FFFFFF;}
</style>
<g>
	<path class="st0" d="M155.4,100c0,0-9.2-37.7-77.3-39.5c0,0-63.3-0.2-77.8,40.7v301.2l78,99.4l78-99L155.4,100z"/>
	<g>
		<g>
			<g>
				<path d="M156.6,100.4H0l0.3-1c7.8-22.9,40.6-39.5,77.9-39.5s70.2,16.6,77.9,39.5L156.6,100.4z M2.1,98.9h152.3
					c-8.2-21.8-40-37.5-76.2-37.5S10.3,77.1,2.1,98.9z"/>
			</g>
			<polygon points="78.6,504 0,403.2 0,100.2 1.5,100.2 1.5,402.7 78.6,501.5 155.1,402.7 155.1,100.3 156.6,100.3 156.6,403.2 			
				"/>
		</g>
		<path d="M78.6,60.1h-1.5V17.4C77.1,7.8,84.9,0,94.5,0c9.6,0,17.5,7.8,17.5,17.4h-1.5c0-8.8-7.2-16-16-16c-8.8,0-16,7.2-16,16V60.1
			z"/>
		<g>
			<g>
				<rect x="27.1" y="62.1" width="1.5" height="9.7"/>
				<rect x="21.9" y="60.6" width="11.9" height="1.5"/>
			</g>
			<g>
				<polygon points="129.5,71.7 128,71.7 128,42.5 180,42.5 180,44 129.5,44 				"/>
				<rect x="122.8" y="60.6" width="11.9" height="1.5"/>
			</g>
		</g>
		<rect x="0.5" y="402.2" width="155.7" height="1.5"/>
		<g>
			<rect x="77.8" y="502.7" width="1.5" height="10.9"/>
			<rect x="72.8" y="512.5" width="11.5" height="1.5"/>
		</g>
	</g>
</g>
</svg>
