<?xml version="1.0" encoding="utf-8"?>
<!-- Generator: Adobe Illustrator 27.9.0, SVG Export Plug-In . SVG Version: 6.00 Build 0)  -->
<svg version="1.1" id="레이어_1" xmlns="http://www.w3.org/2000/svg" xmlns:xlink="http://www.w3.org/1999/xlink" x="0px"
	 y="0px" viewBox="0 0 186 414" style="enable-background:new 0 0 186 414;" xml:space="preserve">
<style type="text/css">
	.st0{fill:#FFFFFF;}
</style>
<g>
	<g>
		<path class="st0" d="M0.6,88.3c0,0,2.6-17.7,33.6-25.7c31-8,74-5.5,94.7-0.5c20.7,5,36.1,15.2,37.9,25.2v326H0.1L0.6,88.3z"/>
		<g>
			<path d="M83.3,345.4c-21,0-38.1-17.1-38.1-38.1c0-21,17.1-38.1,38.1-38.1s38.1,17.1,38.1,38.1
				C121.4,328.3,104.3,345.4,83.3,345.4z M83.3,270.7c-20.2,0-36.6,16.4-36.6,36.6c0,20.2,16.4,36.6,36.6,36.6
				c20.2,0,36.6-16.4,36.6-36.6C119.9,287.1,103.5,270.7,83.3,270.7z"/>
			<path d="M75,58.5h-1.5V17c0-9.4,7.6-17,17-17c9.4,0,17,7.6,17,17H106c0-8.6-7-15.5-15.5-15.5S75,8.5,75,17V58.5z"/>
			<g>
				<g>
					<rect x="27.6" y="55.8" width="1.5" height="9.4"/>
					<rect x="22.6" y="54.3" width="11.5" height="1.5"/>
				</g>
				<g>
					<polygon points="139.7,65.2 138.2,65.2 138.2,36 186,36 186,37.5 139.7,37.5 					"/>
					<rect x="133.2" y="54.3" width="11.5" height="1.5"/>
				</g>
			</g>
			<g>
				<g>
					<path d="M167.4,87.2H0l0.4-1c5.2-13.2,23.8-29,83.3-29c59.5,0,78.1,15.8,83.3,29L167.4,87.2z M2.2,85.7h162.9
						c-10.4-23.5-55.4-27.1-81.5-27.1C57.6,58.7,12.6,62.2,2.2,85.7z"/>
					<rect x="165.8" y="87.2" width="1.5" height="326.8"/>
					<rect x="0" y="87.1" width="1.5" height="326.9"/>
				</g>
				<rect x="0.4" y="412.5" width="166.5" height="1.5"/>
			</g>
			<rect x="83" y="305.9" transform="matrix(0.2384 -0.9712 0.9712 0.2384 -316.5326 379.5656)" width="1.5" height="171.4"/>
			<path d="M83.3,353.8c-25.6,0-46.5-20.9-46.5-46.5c0-25.6,20.8-46.5,46.5-46.5s46.5,20.9,46.5,46.5
				C129.8,333,108.9,353.8,83.3,353.8z M83.3,262.3c-24.8,0-45,20.2-45,45c0,24.8,20.2,45,45,45c24.8,0,45-20.2,45-45
				C128.3,282.5,108.1,262.3,83.3,262.3z"/>
			<g>
				<rect x="166.9" y="380.8" width="10.1" height="1.5"/>
				<rect x="176.9" y="375.8" width="1.5" height="11.6"/>
			</g>
		</g>
	</g>
</g>
</svg>
