<?xml version="1.0" encoding="utf-8"?>
<!-- Generator: Adobe Illustrator 27.9.0, SVG Export Plug-In . SVG Version: 6.00 Build 0)  -->
<svg version="1.1" id="레이어_1" xmlns="http://www.w3.org/2000/svg" xmlns:xlink="http://www.w3.org/1999/xlink" x="0px"
	 y="0px" viewBox="0 0 130 450" style="enable-background:new 0 0 130 450;" xml:space="preserve">
<style type="text/css">
	.st0{fill:#FFFFFF;}
</style>
<g>
	<g>
		<path class="st0" d="M45.2,0.8v93.6l-13.9,0c-0.7,0.4-1-6-5.4-7.7c-5.9-2.2-9.9,2.3-10.2,3.4c-0.4,1.2-0.9,3.9-0.9,3.9H0.7v279.3
			h13.2v66.9h102.4v-67.2h13.4l-0.2-278.7l-14.4-0.1c0,0-1.6-6.8-6.2-7.7c-4.6-0.9-6.3,1.5-7.7,2.6c-1.4,1.2-2.3,5.1-2.3,5.1H85V0.6
			L45.2,0.8z"/>
		<g>
			<g>
				<path d="M116.6,440.8H13.4v-80.6h103.3V440.8z M14.8,439.3h100.3v-77.6H14.8V439.3z"/>
				<g>
					<rect x="122.8" y="388.4" width="1.5" height="9.6"/>
					<rect x="115.7" y="392.5" width="7.7" height="1.5"/>
				</g>
				<g>
					<rect x="89.6" y="448.5" width="9.5" height="1.5"/>
					<rect x="93.6" y="440.3" width="1.5" height="8.8"/>
				</g>
				<g>
					<rect x="29.2" y="350.8" width="9.5" height="1.5"/>
					<rect x="33.2" y="352" width="1.5" height="8.5"/>
				</g>
				<g>
					<rect x="4.5" y="417.7" width="1.5" height="9.6"/>
					<rect x="5.4" y="421.8" width="8.8" height="1.5"/>
				</g>
				<g>
					<g>
						<g>
							<g>
								<rect x="10.5" y="372.3" width="3.5" height="1.5"/>
								<path d="M8.8,373.8H7.6v-1.5h1.1V373.8z M7.1,373.8H5.9v-1.5h1.1V373.8z M5.4,373.8H4.5v-1.5h0.8V373.8z"/>
								<polygon points="3.7,373.8 0,373.8 0,370.1 1.5,370.1 1.5,372.3 3.7,372.3 								"/>
								<path d="M1.5,367.1H0v-2h1.5V367.1z M1.5,364.1H0v-2h1.5V364.1z M1.5,361.1H0v-2h1.5V361.1z M1.5,358H0v-2h1.5V358z
									 M1.5,355H0v-2h1.5V355z M1.5,352H0v-2h1.5V352z M1.5,349H0v-2h1.5V349z M1.5,345.9H0v-2h1.5V345.9z M1.5,342.9H0v-2h1.5
									V342.9z M1.5,339.9H0v-2h1.5V339.9z M1.5,336.9H0v-2h1.5V336.9z M1.5,333.8H0v-2h1.5V333.8z M1.5,330.8H0v-2h1.5V330.8z
									 M1.5,327.8H0v-2h1.5V327.8z M1.5,324.8H0v-2h1.5V324.8z M1.5,321.7H0v-2h1.5V321.7z M1.5,318.7H0v-2h1.5V318.7z M1.5,315.7
									H0v-2h1.5V315.7z M1.5,312.7H0v-2h1.5V312.7z M1.5,309.6H0v-2h1.5V309.6z M1.5,306.6H0v-2h1.5V306.6z M1.5,303.6H0v-2h1.5
									V303.6z M1.5,300.5H0v-2h1.5V300.5z M1.5,297.5H0v-2h1.5V297.5z M1.5,294.5H0v-2h1.5V294.5z M1.5,291.5H0v-2h1.5V291.5z
									 M1.5,288.4H0v-2h1.5V288.4z M1.5,285.4H0v-2h1.5V285.4z M1.5,282.4H0v-2h1.5V282.4z M1.5,279.4H0v-2h1.5V279.4z M1.5,276.3
									H0v-2h1.5V276.3z M1.5,273.3H0v-2h1.5V273.3z M1.5,270.3H0v-2h1.5V270.3z M1.5,267.3H0v-2h1.5V267.3z M1.5,264.2H0v-2h1.5
									V264.2z M1.5,261.2H0v-2h1.5V261.2z M1.5,258.2H0v-2h1.5V258.2z M1.5,255.1H0v-2h1.5V255.1z M1.5,252.1H0v-2h1.5V252.1z
									 M1.5,249.1H0v-2h1.5V249.1z M1.5,246.1H0v-2h1.5V246.1z M1.5,243H0v-2h1.5V243z M1.5,240H0v-2h1.5V240z M1.5,237H0v-2h1.5
									V237z M1.5,234H0v-2h1.5V234z M1.5,230.9H0v-2h1.5V230.9z M1.5,227.9H0v-2h1.5V227.9z M1.5,224.9H0v-2h1.5V224.9z
									 M1.5,221.9H0v-2h1.5V221.9z M1.5,218.8H0v-2h1.5V218.8z M1.5,215.8H0v-2h1.5V215.8z M1.5,212.8H0v-2h1.5V212.8z M1.5,209.8
									H0v-2h1.5V209.8z M1.5,206.7H0v-2h1.5V206.7z M1.5,203.7H0v-2h1.5V203.7z M1.5,200.7H0v-2h1.5V200.7z M1.5,197.6H0v-2h1.5
									V197.6z M1.5,194.6H0v-2h1.5V194.6z M1.5,191.6H0v-2h1.5V191.6z M1.5,188.6H0v-2h1.5V188.6z M1.5,185.5H0v-2h1.5V185.5z
									 M1.5,182.5H0v-2h1.5V182.5z M1.5,179.5H0v-2h1.5V179.5z M1.5,176.5H0v-2h1.5V176.5z M1.5,173.4H0v-2h1.5V173.4z M1.5,170.4
									H0v-2h1.5V170.4z M1.5,167.4H0v-2h1.5V167.4z M1.5,164.4H0v-2h1.5V164.4z M1.5,161.3H0v-2h1.5V161.3z M1.5,158.3H0v-2h1.5
									V158.3z M1.5,155.3H0v-2h1.5V155.3z M1.5,152.2H0v-2h1.5V152.2z M1.5,149.2H0v-2h1.5V149.2z M1.5,146.2H0v-2h1.5V146.2z
									 M1.5,143.2H0v-2h1.5V143.2z M1.5,140.1H0v-2h1.5V140.1z M1.5,137.1H0v-2h1.5V137.1z M1.5,134.1H0v-2h1.5V134.1z M1.5,131.1
									H0v-2h1.5V131.1z M1.5,128H0v-2h1.5V128z M1.5,125H0v-2h1.5V125z M1.5,122H0v-2h1.5V122z M1.5,119H0v-2h1.5V119z M1.5,115.9
									H0v-2h1.5V115.9z M1.5,112.9H0v-2h1.5V112.9z M1.5,109.9H0v-2h1.5V109.9z M1.5,106.9H0v-2h1.5V106.9z M1.5,103.8H0v-2h1.5
									V103.8z M1.5,100.8H0v-2h1.5V100.8z"/>
								<polygon points="1.5,97.2 0,97.2 0,93.4 3.7,93.4 3.7,94.9 1.5,94.9 								"/>
								<path d="M10.8,94.9h-1v-1.5h1V94.9z M9.1,94.9H7.8v-1.5h1.4V94.9z M7.1,94.9H5.7v-1.5h1.4V94.9z"/>
								<rect x="11.8" y="93.4" width="3" height="1.5"/>
							</g>
						</g>
						<path d="M22.9,103c-4.8,0-8.7-3.9-8.7-8.7s3.9-8.7,8.7-8.7s8.7,3.9,8.7,8.7S27.7,103,22.9,103z M22.9,87c-4,0-7.2,3.2-7.2,7.2
							c0,4,3.2,7.2,7.2,7.2s7.2-3.2,7.2-7.2C30.1,90.2,26.9,87,22.9,87z"/>
						<g>
							<g>
								<rect x="31.1" y="93.5" width="3" height="1.5"/>
								<path d="M40.9,95H40v-1.5h0.9V95z M39.3,95H38v-1.5h1.3V95z M37.4,95H36v-1.5h1.3V95z"/>
								<rect x="41.9" y="93.5" width="3" height="1.5"/>
							</g>
						</g>
						<rect x="18.1" y="93.5" width="9.5" height="1.5"/>
					</g>
					<g>
						<rect x="106.4" y="89.5" width="1.5" height="9.6"/>
						<g>
							<g>
								<g>
									<rect x="115.8" y="372.3" width="3.7" height="1.5"/>
									<path d="M125.5,373.8h-0.8v-1.5h0.8V373.8z M124.1,373.8h-1.1v-1.5h1.1V373.8z M122.4,373.8h-1.1v-1.5h1.1V373.8z"/>
									<polygon points="130,373.8 126.3,373.8 126.3,372.3 128.5,372.3 128.5,370.1 130,370.1 									"/>
									<path d="M130,367.1h-1.5v-2h1.5V367.1z M130,364.1h-1.5v-2h1.5V364.1z M130,361.1h-1.5v-2h1.5V361.1z M130,358h-1.5v-2h1.5
										V358z M130,355h-1.5v-2h1.5V355z M130,352h-1.5v-2h1.5V352z M130,349h-1.5v-2h1.5V349z M130,345.9h-1.5v-2h1.5V345.9z
										 M130,342.9h-1.5v-2h1.5V342.9z M130,339.9h-1.5v-2h1.5V339.9z M130,336.9h-1.5v-2h1.5V336.9z M130,333.8h-1.5v-2h1.5
										V333.8z M130,330.8h-1.5v-2h1.5V330.8z M130,327.8h-1.5v-2h1.5V327.8z M130,324.8h-1.5v-2h1.5V324.8z M130,321.7h-1.5v-2
										h1.5V321.7z M130,318.7h-1.5v-2h1.5V318.7z M130,315.7h-1.5v-2h1.5V315.7z M130,312.7h-1.5v-2h1.5V312.7z M130,309.6h-1.5
										v-2h1.5V309.6z M130,306.6h-1.5v-2h1.5V306.6z M130,303.6h-1.5v-2h1.5V303.6z M130,300.5h-1.5v-2h1.5V300.5z M130,297.5
										h-1.5v-2h1.5V297.5z M130,294.5h-1.5v-2h1.5V294.5z M130,291.5h-1.5v-2h1.5V291.5z M130,288.4h-1.5v-2h1.5V288.4z
										 M130,285.4h-1.5v-2h1.5V285.4z M130,282.4h-1.5v-2h1.5V282.4z M130,279.4h-1.5v-2h1.5V279.4z M130,276.3h-1.5v-2h1.5
										V276.3z M130,273.3h-1.5v-2h1.5V273.3z M130,270.3h-1.5v-2h1.5V270.3z M130,267.3h-1.5v-2h1.5V267.3z M130,264.2h-1.5v-2
										h1.5V264.2z M130,261.2h-1.5v-2h1.5V261.2z M130,258.2h-1.5v-2h1.5V258.2z M130,255.1h-1.5v-2h1.5V255.1z M130,252.1h-1.5
										v-2h1.5V252.1z M130,249.1h-1.5v-2h1.5V249.1z M130,246.1h-1.5v-2h1.5V246.1z M130,243h-1.5v-2h1.5V243z M130,240h-1.5v-2
										h1.5V240z M130,237h-1.5v-2h1.5V237z M130,234h-1.5v-2h1.5V234z M130,230.9h-1.5v-2h1.5V230.9z M130,227.9h-1.5v-2h1.5
										V227.9z M130,224.9h-1.5v-2h1.5V224.9z M130,221.9h-1.5v-2h1.5V221.9z M130,218.8h-1.5v-2h1.5V218.8z M130,215.8h-1.5v-2
										h1.5V215.8z M130,212.8h-1.5v-2h1.5V212.8z M130,209.8h-1.5v-2h1.5V209.8z M130,206.7h-1.5v-2h1.5V206.7z M130,203.7h-1.5
										v-2h1.5V203.7z M130,200.7h-1.5v-2h1.5V200.7z M130,197.6h-1.5v-2h1.5V197.6z M130,194.6h-1.5v-2h1.5V194.6z M130,191.6
										h-1.5v-2h1.5V191.6z M130,188.6h-1.5v-2h1.5V188.6z M130,185.5h-1.5v-2h1.5V185.5z M130,182.5h-1.5v-2h1.5V182.5z
										 M130,179.5h-1.5v-2h1.5V179.5z M130,176.5h-1.5v-2h1.5V176.5z M130,173.4h-1.5v-2h1.5V173.4z M130,170.4h-1.5v-2h1.5
										V170.4z M130,167.4h-1.5v-2h1.5V167.4z M130,164.4h-1.5v-2h1.5V164.4z M130,161.3h-1.5v-2h1.5V161.3z M130,158.3h-1.5v-2
										h1.5V158.3z M130,155.3h-1.5v-2h1.5V155.3z M130,152.2h-1.5v-2h1.5V152.2z M130,149.2h-1.5v-2h1.5V149.2z M130,146.2h-1.5
										v-2h1.5V146.2z M130,143.2h-1.5v-2h1.5V143.2z M130,140.1h-1.5v-2h1.5V140.1z M130,137.1h-1.5v-2h1.5V137.1z M130,134.1
										h-1.5v-2h1.5V134.1z M130,131.1h-1.5v-2h1.5V131.1z M130,128h-1.5v-2h1.5V128z M130,125h-1.5v-2h1.5V125z M130,122h-1.5v-2
										h1.5V122z M130,119h-1.5v-2h1.5V119z M130,115.9h-1.5v-2h1.5V115.9z M130,112.9h-1.5v-2h1.5V112.9z M130,109.9h-1.5v-2h1.5
										V109.9z M130,106.9h-1.5v-2h1.5V106.9z M130,103.8h-1.5v-2h1.5V103.8z M130,100.8h-1.5v-2h1.5V100.8z"/>
									<polygon points="130,97.2 128.5,97.2 128.5,94.9 126.3,94.9 126.3,93.4 130,93.4 									"/>
									<path d="M124.3,94.9h-1.4v-1.5h1.4V94.9z M122.2,94.9h-1.4v-1.5h1.4V94.9z M120.2,94.9h-1v-1.5h1V94.9z"/>
									<rect x="115.3" y="93.4" width="3" height="1.5"/>
								</g>
							</g>
						</g>
						<path d="M107.1,103c-4.8,0-8.7-3.9-8.7-8.7s3.9-8.7,8.7-8.7c4.8,0,8.7,3.9,8.7,8.7S111.9,103,107.1,103z M107.1,87
							c-4,0-7.2,3.2-7.2,7.2c0,4,3.2,7.2,7.2,7.2c4,0,7.2-3.2,7.2-7.2C114.3,90.2,111.1,87,107.1,87z"/>
						<g>
							<g>
								<g>
									<rect x="95.9" y="93.5" width="3" height="1.5"/>
									<path d="M94,95h-1.3v-1.5H94V95z M92,95h-1.3v-1.5H92V95z M90,95h-0.9v-1.5H90V95z"/>
									<rect x="85.1" y="93.5" width="3" height="1.5"/>
								</g>
							</g>
						</g>
						<rect x="102.3" y="93.5" width="9.5" height="1.5"/>
					</g>
				</g>
				<g>
					<path d="M85.7,103.5H44.3V0h41.4V103.5z M45.8,102h38.4V1.5H45.8V102z"/>
					<rect x="45.4" y="47.7" width="39.1" height="1.5"/>
					<rect x="45.5" y="80.5" width="39" height="1.5"/>
					<path d="M65,64.1l-8.5-9.7h16.9L65,64.1z M59.8,55.9l5.2,5.9l5.2-5.9H59.8z"/>
					<rect x="55.6" y="64.1" width="18.8" height="1.5"/>
					<rect x="64.3" y="45.5" width="1.5" height="9"/>
					<rect x="64.3" y="35.7" width="1.5" height="7.7"/>
					<rect x="64.3" y="65.5" width="1.5" height="9"/>
					<path d="M68.4,74.6c0,1.9-1.5,3.4-3.4,3.4c-1.9,0-3.4-1.5-3.4-3.4s1.5-3.4,3.4-3.4C66.9,71.2,68.4,72.7,68.4,74.6z"/>
					<path d="M65,26.3c-5.6,0-10.2-4.6-10.2-10.2S59.4,5.8,65,5.8c5.6,0,10.2,4.6,10.2,10.2S70.6,26.3,65,26.3z M65,7.3
						c-4.8,0-8.7,3.9-8.7,8.7c0,4.8,3.9,8.7,8.7,8.7c4.8,0,8.7-3.9,8.7-8.7C73.7,11.2,69.8,7.3,65,7.3z"/>
					<path d="M65,36.1c-5.6,0-10.2-4.6-10.2-10.2S59.4,15.6,65,15.6c5.6,0,10.2,4.6,10.2,10.2S70.6,36.1,65,36.1z M65,17.1
						c-4.8,0-8.7,3.9-8.7,8.7c0,4.8,3.9,8.7,8.7,8.7c4.8,0,8.7-3.9,8.7-8.7C73.7,21.1,69.8,17.1,65,17.1z"/>
				</g>
			</g>
		</g>
	</g>
</g>
</svg>
