<?xml version="1.0" encoding="utf-8"?>
<!-- Generator: Adobe Illustrator 27.9.0, SVG Export Plug-In . SVG Version: 6.00 Build 0)  -->
<svg version="1.1" id="레이어_1" xmlns="http://www.w3.org/2000/svg" xmlns:xlink="http://www.w3.org/1999/xlink" x="0px"
	 y="0px" viewBox="0 0 72 56" style="enable-background:new 0 0 72 56;" xml:space="preserve">
<style type="text/css">
	.st0{fill:#FFFFFF;}
</style>
<g>
	<g>
		<g>
			<polygon class="st0" points="9.3,37.5 9.3,55.4 62.8,55.4 62.8,0 44.5,0 44.5,19.1 28.4,19.1 28.4,37.3 			"/>
			<g>
				<path d="M63.4,56H8.6V36.6h19.1V18.3h16.2V0h19.5V56z M10.1,54.5h51.8v-53H45.3v18.3H29.1v18.3H10.1V54.5z"/>
				<g>
					<g>
						<rect x="0.7" y="45.8" width="8.5" height="1.5"/>
						<rect x="0" y="41.8" width="1.5" height="9.5"/>
					</g>
					<g>
						<rect x="62.7" y="10.2" width="8.5" height="1.5"/>
						<rect x="70.5" y="6.2" width="1.5" height="9.5"/>
					</g>
				</g>
			</g>
		</g>
		<g>
			<path d="M40.7,46.2V33.5h4.4c4.4,0,6.7,2.1,6.7,6.2c0,2-0.6,3.6-1.8,4.7c-1.2,1.2-2.8,1.8-4.8,1.8H40.7z M43.5,35.8v8h1.4
				c1.2,0,2.2-0.4,2.9-1.1c0.7-0.7,1-1.8,1-3c0-1.2-0.3-2.2-1-2.9c-0.7-0.7-1.7-1-2.9-1H43.5z"/>
		</g>
	</g>
</g>
</svg>
