<?xml version="1.0" encoding="utf-8"?>
<!-- Generator: Adobe Illustrator 27.9.0, SVG Export Plug-In . SVG Version: 6.00 Build 0)  -->
<svg version="1.1" id="레이어_1" xmlns="http://www.w3.org/2000/svg" xmlns:xlink="http://www.w3.org/1999/xlink" x="0px"
	 y="0px" viewBox="0 0 78 66" style="enable-background:new 0 0 78 66;" xml:space="preserve">
<style type="text/css">
	.st0{fill:#FFFFFF;}
</style>
<g>
	<g>
		<g>
			<polygon class="st0" points="29.6,0.8 29.6,22.7 34.1,22.7 34.1,65.1 43.3,65.1 43.3,22.2 47.8,22.2 47.8,0.9 			"/>
			<path d="M48.9,23h-20V0h20V23z M30.3,21.5h17.2V1.5H30.3V21.5z"/>
			<polygon points="44.4,66 33.3,66 33.3,22.2 34.8,22.2 34.8,64.5 42.9,64.5 42.9,22.2 44.4,22.2 			"/>
		</g>
		<g>
			<polygon points="24.1,34.9 17,32.8 17,36.1 0,36.1 0,37.8 17,37.8 17,41.1 24.1,39 31.3,37 			"/>
		</g>
		<g>
			<polygon points="70.9,34.9 63.8,32.8 63.8,36.1 46.7,36.1 46.7,37.8 63.8,37.8 63.8,41.1 70.9,39 78,37 			"/>
		</g>
	</g>
</g>
</svg>
