<?xml version="1.0" encoding="utf-8"?>
<!-- Generator: Adobe Illustrator 27.9.0, SVG Export Plug-In . SVG Version: 6.00 Build 0)  -->
<svg version="1.1" id="레이어_1" xmlns="http://www.w3.org/2000/svg" xmlns:xlink="http://www.w3.org/1999/xlink" x="0px"
	 y="0px" viewBox="0 0 380 180" style="enable-background:new 0 0 380 180;" xml:space="preserve">
<style type="text/css">
	.st0{fill:#FFFFFF;}
</style>
<g>
	<rect x="0.8" y="0.7" class="st0" width="378.5" height="178.9"/>
	<g>
		<g>
			<g>
				<g>
					<polygon points="352,155.5 28,155.5 28,0.7 29.5,0.7 29.5,154 350.5,154 350.5,0.7 352,0.7 					"/>
				</g>
				<path d="M380,180H0V0h380V180z M1.5,178.5h377V1.5H1.5V178.5z"/>
			</g>
			<path d="M13.6,8.1c0,1-0.8,1.9-1.9,1.9S9.8,9.1,9.8,8.1s0.8-1.9,1.9-1.9S13.6,7,13.6,8.1z"/>
			<path d="M9.5,13.5c0,1-0.8,1.9-1.9,1.9c-1,0-1.9-0.8-1.9-1.9c0-1,0.8-1.9,1.9-1.9C8.6,11.6,9.5,12.5,9.5,13.5z"/>
			<path d="M7,16.9c0,1-0.8,1.9-1.9,1.9c-1,0-1.9-0.8-1.9-1.9c0-1,0.8-1.9,1.9-1.9C6.2,15.1,7,15.9,7,16.9z"/>
			<path d="M6.4,21.2c0,1-0.8,1.9-1.9,1.9c-1,0-1.9-0.8-1.9-1.9c0-1,0.8-1.9,1.9-1.9C5.6,19.4,6.4,20.2,6.4,21.2z"/>
			<path d="M11.1,25.2c0,1-0.8,1.9-1.9,1.9c-1,0-1.9-0.8-1.9-1.9s0.8-1.9,1.9-1.9C10.3,23.4,11.1,24.2,11.1,25.2z"/>
			<path d="M23.1,13.4c0,1-0.8,1.9-1.9,1.9c-1,0-1.9-0.8-1.9-1.9c0-1,0.8-1.9,1.9-1.9C22.3,11.6,23.1,12.4,23.1,13.4z"/>
			<path d="M26.7,17.7c0,1-0.8,1.9-1.9,1.9c-1,0-1.9-0.8-1.9-1.9c0-1,0.8-1.9,1.9-1.9C25.9,15.8,26.7,16.7,26.7,17.7z"/>
			<path d="M26.3,7.3c0,1-0.8,1.9-1.9,1.9c-1,0-1.9-0.8-1.9-1.9s0.8-1.9,1.9-1.9C25.5,5.5,26.3,6.3,26.3,7.3z"/>
			<path d="M17.3,29.6c0,1-0.8,1.9-1.9,1.9c-1,0-1.9-0.8-1.9-1.9s0.8-1.9,1.9-1.9C16.5,27.7,17.3,28.6,17.3,29.6z"/>
			<path d="M10.6,30.6c0,1-0.8,1.9-1.9,1.9c-1,0-1.9-0.8-1.9-1.9c0-1,0.8-1.9,1.9-1.9C9.8,28.7,10.6,29.6,10.6,30.6z"/>
			<path d="M9.9,36.9c0,1-0.8,1.9-1.9,1.9c-1,0-1.9-0.8-1.9-1.9C6.1,35.9,7,35,8,35C9,35,9.9,35.9,9.9,36.9z"/>
			<path d="M18.5,36.7c0,1-0.8,1.9-1.9,1.9c-1,0-1.9-0.8-1.9-1.9c0-1,0.8-1.9,1.9-1.9C17.6,34.9,18.5,35.7,18.5,36.7z"/>
			<path d="M26.9,37.3c0,1-0.8,1.9-1.9,1.9c-1,0-1.9-0.8-1.9-1.9c0-1,0.8-1.9,1.9-1.9C26.1,35.5,26.9,36.3,26.9,37.3z"/>
			<path d="M14.9,44.2c0,1-0.8,1.9-1.9,1.9c-1,0-1.9-0.8-1.9-1.9c0-1,0.8-1.9,1.9-1.9C14.1,42.4,14.9,43.2,14.9,44.2z"/>
			<path d="M13.3,53.8c0,1-0.8,1.9-1.9,1.9c-1,0-1.9-0.8-1.9-1.9c0-1,0.8-1.9,1.9-1.9C12.4,51.9,13.3,52.8,13.3,53.8z"/>
			<path d="M19.3,60.3c0,1-0.8,1.9-1.9,1.9c-1,0-1.9-0.8-1.9-1.9c0-1,0.8-1.9,1.9-1.9C18.5,58.4,19.3,59.3,19.3,60.3z"/>
			<path d="M19,65c0,1-0.8,1.9-1.9,1.9c-1,0-1.9-0.8-1.9-1.9c0-1,0.8-1.9,1.9-1.9C18.1,63.1,19,64,19,65z"/>
			<path d="M27.6,60.4c0,1-0.8,1.9-1.9,1.9c-1,0-1.9-0.8-1.9-1.9s0.8-1.9,1.9-1.9C26.8,58.5,27.6,59.4,27.6,60.4z"/>
			<path d="M25.9,68.2c0,1-0.8,1.9-1.9,1.9c-1,0-1.9-0.8-1.9-1.9c0-1,0.8-1.9,1.9-1.9C25,66.4,25.9,67.2,25.9,68.2z"/>
			<path d="M15,77.6c0,1-0.8,1.9-1.9,1.9s-1.9-0.8-1.9-1.9c0-1,0.8-1.9,1.9-1.9S15,76.6,15,77.6z"/>
			<path d="M17.6,80.6c0,1-0.8,1.9-1.9,1.9c-1,0-1.9-0.8-1.9-1.9c0-1,0.8-1.9,1.9-1.9C16.7,78.8,17.6,79.6,17.6,80.6z"/>
			<path d="M23.8,85.9c0,1-0.8,1.9-1.9,1.9c-1,0-1.9-0.8-1.9-1.9c0-1,0.8-1.9,1.9-1.9C23,84,23.8,84.9,23.8,85.9z"/>
			<path d="M17.1,93.7c0,1-0.8,1.9-1.9,1.9c-1,0-1.9-0.8-1.9-1.9c0-1,0.8-1.9,1.9-1.9C16.3,91.8,17.1,92.6,17.1,93.7z"/>
			<path d="M13.2,86.1c0,1-0.8,1.9-1.9,1.9c-1,0-1.9-0.8-1.9-1.9c0-1,0.8-1.9,1.9-1.9C12.3,84.3,13.2,85.1,13.2,86.1z"/>
			<path d="M6.6,80c0,1-0.8,1.9-1.9,1.9c-1,0-1.9-0.8-1.9-1.9c0-1,0.8-1.9,1.9-1.9C5.8,78.1,6.6,78.9,6.6,80z"/>
			<path d="M11.9,106.5c0,1-0.8,1.9-1.9,1.9c-1,0-1.9-0.8-1.9-1.9c0-1,0.8-1.9,1.9-1.9C11.1,104.6,11.9,105.4,11.9,106.5z"/>
			<path d="M7.7,112.5c0,1-0.8,1.9-1.9,1.9c-1,0-1.9-0.8-1.9-1.9c0-1,0.8-1.9,1.9-1.9C6.9,110.6,7.7,111.4,7.7,112.5z"/>
			<path d="M23.3,116.1c0,1-0.8,1.9-1.9,1.9c-1,0-1.9-0.8-1.9-1.9c0-1,0.8-1.9,1.9-1.9C22.5,114.2,23.3,115.1,23.3,116.1z"/>
			<path d="M27.4,110.4c0,1-0.8,1.9-1.9,1.9c-1,0-1.9-0.8-1.9-1.9c0-1,0.8-1.9,1.9-1.9C26.5,108.6,27.4,109.4,27.4,110.4z"/>
			<path d="M14.7,119.8c0,1-0.8,1.9-1.9,1.9c-1,0-1.9-0.8-1.9-1.9c0-1,0.8-1.9,1.9-1.9C13.8,118,14.7,118.8,14.7,119.8z"/>
			<path d="M7,124.5c0,1-0.8,1.9-1.9,1.9c-1,0-1.9-0.8-1.9-1.9c0-1,0.8-1.9,1.9-1.9C6.2,122.7,7,123.5,7,124.5z"/>
			<path d="M13.9,127.1c0,1-0.8,1.9-1.9,1.9c-1,0-1.9-0.8-1.9-1.9c0-1,0.8-1.9,1.9-1.9C13.1,125.3,13.9,126.1,13.9,127.1z"/>
			<path d="M20.3,133.3c0,1-0.8,1.9-1.9,1.9c-1,0-1.9-0.8-1.9-1.9c0-1,0.8-1.9,1.9-1.9C19.5,131.5,20.3,132.3,20.3,133.3z"/>
			<path d="M26.3,136.8c0,1-0.8,1.9-1.9,1.9c-1,0-1.9-0.8-1.9-1.9s0.8-1.9,1.9-1.9C25.4,134.9,26.3,135.7,26.3,136.8z"/>
			<path d="M11,142c0,1-0.8,1.9-1.9,1.9c-1,0-1.9-0.8-1.9-1.9c0-1,0.8-1.9,1.9-1.9C10.1,140.1,11,140.9,11,142z"/>
			<path d="M17.6,144.2c0,1-0.8,1.9-1.9,1.9c-1,0-1.9-0.8-1.9-1.9c0-1,0.8-1.9,1.9-1.9C16.8,142.3,17.6,143.1,17.6,144.2z"/>
			<path d="M19.5,148.6c0,1-0.8,1.9-1.9,1.9c-1,0-1.9-0.8-1.9-1.9c0-1,0.8-1.9,1.9-1.9C18.7,146.7,19.5,147.5,19.5,148.6z"/>
			<path d="M25.2,147.8c0,1-0.8,1.9-1.9,1.9c-1,0-1.9-0.8-1.9-1.9s0.8-1.9,1.9-1.9C24.4,145.9,25.2,146.8,25.2,147.8z"/>
			<path d="M14.8,151.5c0,1-0.8,1.9-1.9,1.9s-1.9-0.8-1.9-1.9c0-1,0.8-1.9,1.9-1.9S14.8,150.4,14.8,151.5z"/>
			<path d="M6.6,145.5c0,1-0.8,1.9-1.9,1.9c-1,0-1.9-0.8-1.9-1.9c0-1,0.8-1.9,1.9-1.9C5.8,143.7,6.6,144.5,6.6,145.5z"/>
			<path d="M8,156.7c0,1-0.8,1.9-1.9,1.9c-1,0-1.9-0.8-1.9-1.9c0-1,0.8-1.9,1.9-1.9C7.2,154.9,8,155.7,8,156.7z"/>
			<path d="M15.4,156.8c0,1-0.8,1.9-1.9,1.9c-1,0-1.9-0.8-1.9-1.9c0-1,0.8-1.9,1.9-1.9C14.6,154.9,15.4,155.7,15.4,156.8z"/>
			<path d="M14.9,168c0,1-0.8,1.9-1.9,1.9c-1,0-1.9-0.8-1.9-1.9c0-1,0.8-1.9,1.9-1.9C14.1,166.1,14.9,166.9,14.9,168z"/>
			<path d="M11.1,172.1c0,1-0.8,1.9-1.9,1.9c-1,0-1.9-0.8-1.9-1.9s0.8-1.9,1.9-1.9C10.2,170.3,11.1,171.1,11.1,172.1z"/>
			<path d="M23.4,174.9c0,1-0.8,1.9-1.9,1.9c-1,0-1.9-0.8-1.9-1.9c0-1,0.8-1.9,1.9-1.9C22.5,173.1,23.4,173.9,23.4,174.9z"/>
			<path d="M35.4,161.1c0,1-0.8,1.9-1.9,1.9c-1,0-1.9-0.8-1.9-1.9c0-1,0.8-1.9,1.9-1.9C34.6,159.3,35.4,160.1,35.4,161.1z"/>
			<path d="M39.4,156.9c0,1-0.8,1.9-1.9,1.9c-1,0-1.9-0.8-1.9-1.9c0-1,0.8-1.9,1.9-1.9C38.5,155,39.4,155.8,39.4,156.9z"/>
			<path d="M40.1,165c0,1-0.8,1.9-1.9,1.9s-1.9-0.8-1.9-1.9c0-1,0.8-1.9,1.9-1.9S40.1,164,40.1,165z"/>
			<path d="M50.5,166.3c0,1-0.8,1.9-1.9,1.9c-1,0-1.9-0.8-1.9-1.9c0-1,0.8-1.9,1.9-1.9C49.6,164.5,50.5,165.3,50.5,166.3z"/>
			<path d="M49.5,175.1c0,1-0.8,1.9-1.9,1.9c-1,0-1.9-0.8-1.9-1.9c0-1,0.8-1.9,1.9-1.9C48.7,173.3,49.5,174.1,49.5,175.1z"/>
			<path d="M65.5,163.9c0,1-0.8,1.9-1.9,1.9c-1,0-1.9-0.8-1.9-1.9c0-1,0.8-1.9,1.9-1.9C64.6,162.1,65.5,162.9,65.5,163.9z"/>
			<path d="M67.1,158.7c0,1-0.8,1.9-1.9,1.9c-1,0-1.9-0.8-1.9-1.9s0.8-1.9,1.9-1.9C66.2,156.8,67.1,157.6,67.1,158.7z"/>
			<path d="M74,158.4c0,1-0.8,1.9-1.9,1.9c-1,0-1.9-0.8-1.9-1.9c0-1,0.8-1.9,1.9-1.9C73.2,156.5,74,157.4,74,158.4z"/>
			<path d="M79.9,160.9c0,1-0.8,1.9-1.9,1.9c-1,0-1.9-0.8-1.9-1.9c0-1,0.8-1.9,1.9-1.9C79.1,159,79.9,159.8,79.9,160.9z"/>
			<path d="M76.4,170.1c0,1-0.8,1.9-1.9,1.9c-1,0-1.9-0.8-1.9-1.9c0-1,0.8-1.9,1.9-1.9C75.5,168.2,76.4,169.1,76.4,170.1z"/>
			<path d="M105.3,163.5c0,1-0.8,1.9-1.9,1.9c-1,0-1.9-0.8-1.9-1.9s0.8-1.9,1.9-1.9C104.5,161.7,105.3,162.5,105.3,163.5z"/>
			<path d="M109.7,160.8c0,1-0.8,1.9-1.9,1.9c-1,0-1.9-0.8-1.9-1.9c0-1,0.8-1.9,1.9-1.9C108.8,158.9,109.7,159.7,109.7,160.8z"/>
			<path d="M111.3,171.6c0,1-0.8,1.9-1.9,1.9c-1,0-1.9-0.8-1.9-1.9c0-1,0.8-1.9,1.9-1.9C110.5,169.7,111.3,170.6,111.3,171.6z"/>
			<path d="M126.5,162.8c0,1-0.8,1.9-1.9,1.9c-1,0-1.9-0.8-1.9-1.9c0-1,0.8-1.9,1.9-1.9C125.7,161,126.5,161.8,126.5,162.8z"/>
			<path d="M131.2,159.6c0,1-0.8,1.9-1.9,1.9c-1,0-1.9-0.8-1.9-1.9c0-1,0.8-1.9,1.9-1.9C130.3,157.8,131.2,158.6,131.2,159.6z"/>
			<path d="M136.5,159.9c0,1-0.8,1.9-1.9,1.9c-1,0-1.9-0.8-1.9-1.9c0-1,0.8-1.9,1.9-1.9C135.7,158.1,136.5,158.9,136.5,159.9z"/>
			<path d="M138.4,165c0,1-0.8,1.9-1.9,1.9c-1,0-1.9-0.8-1.9-1.9c0-1,0.8-1.9,1.9-1.9C137.5,163.1,138.4,163.9,138.4,165z"/>
			<path d="M144.1,161c0,1-0.8,1.9-1.9,1.9c-1,0-1.9-0.8-1.9-1.9c0-1,0.8-1.9,1.9-1.9C143.2,159.1,144.1,159.9,144.1,161z"/>
			<path d="M148.6,168c0,1-0.8,1.9-1.9,1.9c-1,0-1.9-0.8-1.9-1.9c0-1,0.8-1.9,1.9-1.9C147.8,166.1,148.6,166.9,148.6,168z"/>
			<path d="M146.9,175.9c0,1-0.8,1.9-1.9,1.9c-1,0-1.9-0.8-1.9-1.9c0-1,0.8-1.9,1.9-1.9C146.1,174,146.9,174.9,146.9,175.9z"/>
			<path d="M137.1,175.4c0,1-0.8,1.9-1.9,1.9c-1,0-1.9-0.8-1.9-1.9c0-1,0.8-1.9,1.9-1.9C136.3,173.5,137.1,174.4,137.1,175.4z"/>
			<path d="M154.7,167.9c0,1-0.8,1.9-1.9,1.9c-1,0-1.9-0.8-1.9-1.9c0-1,0.8-1.9,1.9-1.9C153.8,166,154.7,166.8,154.7,167.9z"/>
			<path d="M157.3,171.4c0,1-0.8,1.9-1.9,1.9c-1,0-1.9-0.8-1.9-1.9c0-1,0.8-1.9,1.9-1.9C156.5,169.6,157.3,170.4,157.3,171.4z"/>
			<path d="M160.8,164.7c0,1-0.8,1.9-1.9,1.9c-1,0-1.9-0.8-1.9-1.9c0-1,0.8-1.9,1.9-1.9C160,162.8,160.8,163.6,160.8,164.7z"/>
			<path d="M174.4,162.9c0,1-0.8,1.9-1.9,1.9c-1,0-1.9-0.8-1.9-1.9c0-1,0.8-1.9,1.9-1.9C173.6,161,174.4,161.8,174.4,162.9z"/>
			<path d="M178,158.5c0,1-0.8,1.9-1.9,1.9c-1,0-1.9-0.8-1.9-1.9c0-1,0.8-1.9,1.9-1.9C177.2,156.7,178,157.5,178,158.5z"/>
			<path d="M178.6,166.2c0,1-0.8,1.9-1.9,1.9c-1,0-1.9-0.8-1.9-1.9s0.8-1.9,1.9-1.9C177.7,164.3,178.6,165.2,178.6,166.2z"/>
			<path d="M169.8,170.1c0,1-0.8,1.9-1.9,1.9c-1,0-1.9-0.8-1.9-1.9c0-1,0.8-1.9,1.9-1.9C169,168.2,169.8,169.1,169.8,170.1z"/>
			<path d="M173.4,172.4c0,1-0.8,1.9-1.9,1.9c-1,0-1.9-0.8-1.9-1.9c0-1,0.8-1.9,1.9-1.9C172.6,170.5,173.4,171.4,173.4,172.4z"/>
			<path d="M182.1,171.8c0,1-0.8,1.9-1.9,1.9c-1,0-1.9-0.8-1.9-1.9c0-1,0.8-1.9,1.9-1.9C181.2,170,182.1,170.8,182.1,171.8z"/>
			<path d="M187.2,174.1c0,1-0.8,1.9-1.9,1.9c-1,0-1.9-0.8-1.9-1.9c0-1,0.8-1.9,1.9-1.9C186.3,172.2,187.2,173.1,187.2,174.1z"/>
			<path d="M187.2,164.7c0,1-0.8,1.9-1.9,1.9c-1,0-1.9-0.8-1.9-1.9c0-1,0.8-1.9,1.9-1.9C186.3,162.8,187.2,163.6,187.2,164.7z"/>
			<path d="M190.6,160.9c0,1-0.8,1.9-1.9,1.9c-1,0-1.9-0.8-1.9-1.9c0-1,0.8-1.9,1.9-1.9C189.8,159,190.6,159.8,190.6,160.9z"/>
			<path d="M200.9,173.8c0,1-0.8,1.9-1.9,1.9c-1,0-1.9-0.8-1.9-1.9c0-1,0.8-1.9,1.9-1.9C200.1,171.9,200.9,172.7,200.9,173.8z"/>
			<path d="M207.8,161c0,1-0.8,1.9-1.9,1.9c-1,0-1.9-0.8-1.9-1.9s0.8-1.9,1.9-1.9C206.9,159.1,207.8,160,207.8,161z"/>
			<path d="M211.5,168c0,1-0.8,1.9-1.9,1.9c-1,0-1.9-0.8-1.9-1.9c0-1,0.8-1.9,1.9-1.9C210.7,166.1,211.5,166.9,211.5,168z"/>
			<path d="M213.8,172.5c0,1-0.8,1.9-1.9,1.9c-1,0-1.9-0.8-1.9-1.9c0-1,0.8-1.9,1.9-1.9C213,170.6,213.8,171.4,213.8,172.5z"/>
			<path d="M217.2,175.9c0,1-0.8,1.9-1.9,1.9c-1,0-1.9-0.8-1.9-1.9c0-1,0.8-1.9,1.9-1.9C216.3,174,217.2,174.8,217.2,175.9z"/>
			<path d="M222.3,175c0,1-0.8,1.9-1.9,1.9c-1,0-1.9-0.8-1.9-1.9c0-1,0.8-1.9,1.9-1.9C221.5,173.2,222.3,174,222.3,175z"/>
			<path d="M230.1,174.1c0,1-0.8,1.9-1.9,1.9c-1,0-1.9-0.8-1.9-1.9c0-1,0.8-1.9,1.9-1.9C229.2,172.2,230.1,173,230.1,174.1z"/>
			<path d="M231.4,165.1c0,1-0.8,1.9-1.9,1.9c-1,0-1.9-0.8-1.9-1.9c0-1,0.8-1.9,1.9-1.9C230.5,163.2,231.4,164.1,231.4,165.1z"/>
			<path d="M245.3,158.6c0,1-0.8,1.9-1.9,1.9c-1,0-1.9-0.8-1.9-1.9s0.8-1.9,1.9-1.9C244.5,156.8,245.3,157.6,245.3,158.6z"/>
			<path d="M241.5,166.3c0,1-0.8,1.9-1.9,1.9c-1,0-1.9-0.8-1.9-1.9c0-1,0.8-1.9,1.9-1.9C240.6,164.5,241.5,165.3,241.5,166.3z"/>
			<path d="M241.7,171.7c0,1-0.8,1.9-1.9,1.9c-1,0-1.9-0.8-1.9-1.9c0-1,0.8-1.9,1.9-1.9C240.8,169.8,241.7,170.7,241.7,171.7z"/>
			<path d="M249.2,171.9c0,1-0.8,1.9-1.9,1.9c-1,0-1.9-0.8-1.9-1.9c0-1,0.8-1.9,1.9-1.9C248.4,170,249.2,170.9,249.2,171.9z"/>
			<path d="M246.2,175.5c0,1-0.8,1.9-1.9,1.9c-1,0-1.9-0.8-1.9-1.9c0-1,0.8-1.9,1.9-1.9C245.4,173.7,246.2,174.5,246.2,175.5z"/>
			<path d="M260.5,172.5c0,1-0.8,1.9-1.9,1.9c-1,0-1.9-0.8-1.9-1.9c0-1,0.8-1.9,1.9-1.9C259.7,170.6,260.5,171.5,260.5,172.5z"/>
			<path d="M264.3,161.4c0,1-0.8,1.9-1.9,1.9c-1,0-1.9-0.8-1.9-1.9c0-1,0.8-1.9,1.9-1.9C263.4,159.6,264.3,160.4,264.3,161.4z"/>
			<ellipse cx="267.5" cy="161.4" rx="1.9" ry="1.9"/>
			<path d="M274.6,160.3c0,1-0.8,1.9-1.9,1.9c-1,0-1.9-0.8-1.9-1.9c0-1,0.8-1.9,1.9-1.9C273.7,158.5,274.6,159.3,274.6,160.3z"/>
			<path d="M268.5,165.9c0,1-0.8,1.9-1.9,1.9c-1,0-1.9-0.8-1.9-1.9c0-1,0.8-1.9,1.9-1.9C267.7,164.1,268.5,164.9,268.5,165.9z"/>
			<path d="M272.9,167.6c0,1-0.8,1.9-1.9,1.9c-1,0-1.9-0.8-1.9-1.9c0-1,0.8-1.9,1.9-1.9C272.1,165.8,272.9,166.6,272.9,167.6z"/>
			<path d="M361.2,132.1c0,1-0.8,1.9-1.9,1.9c-1,0-1.9-0.8-1.9-1.9c0-1,0.8-1.9,1.9-1.9C360.3,130.2,361.2,131,361.2,132.1z"/>
			<path d="M366.3,132c0,1-0.8,1.9-1.9,1.9c-1,0-1.9-0.8-1.9-1.9c0-1,0.8-1.9,1.9-1.9C365.5,130.2,366.3,131,366.3,132z"/>
			<path d="M371.5,131c0,1-0.8,1.9-1.9,1.9c-1,0-1.9-0.8-1.9-1.9c0-1,0.8-1.9,1.9-1.9C370.6,129.1,371.5,129.9,371.5,131z"/>
			<path d="M365.4,136.6c0,1-0.8,1.9-1.9,1.9c-1,0-1.9-0.8-1.9-1.9c0-1,0.8-1.9,1.9-1.9C364.6,134.7,365.4,135.5,365.4,136.6z"/>
			<path d="M369.8,138.2c0,1-0.8,1.9-1.9,1.9c-1,0-1.9-0.8-1.9-1.9c0-1,0.8-1.9,1.9-1.9C369,136.4,369.8,137.2,369.8,138.2z"/>
			<path d="M365.8,71.5c0,1-0.8,1.9-1.9,1.9c-1,0-1.9-0.8-1.9-1.9c0-1,0.8-1.9,1.9-1.9C365,69.6,365.8,70.4,365.8,71.5z"/>
			<path d="M371,71.4c0,1-0.8,1.9-1.9,1.9c-1,0-1.9-0.8-1.9-1.9c0-1,0.8-1.9,1.9-1.9C370.1,69.6,371,70.4,371,71.4z"/>
			<path d="M376.1,70.4c0,1-0.8,1.9-1.9,1.9c-1,0-1.9-0.8-1.9-1.9c0-1,0.8-1.9,1.9-1.9C375.3,68.5,376.1,69.3,376.1,70.4z"/>
			<path d="M370.1,76c0,1-0.8,1.9-1.9,1.9c-1,0-1.9-0.8-1.9-1.9c0-1,0.8-1.9,1.9-1.9C369.2,74.1,370.1,74.9,370.1,76z"/>
			<path d="M374.5,77.6c0,1-0.8,1.9-1.9,1.9c-1,0-1.9-0.8-1.9-1.9c0-1,0.8-1.9,1.9-1.9C373.7,75.8,374.5,76.6,374.5,77.6z"/>
			<path d="M357.6,45.7c0,1-0.8,1.9-1.9,1.9c-1,0-1.9-0.8-1.9-1.9c0-1,0.8-1.9,1.9-1.9C356.8,43.8,357.6,44.7,357.6,45.7z"/>
			<path d="M362.8,45.6c0,1-0.8,1.9-1.9,1.9c-1,0-1.9-0.8-1.9-1.9c0-1,0.8-1.9,1.9-1.9C361.9,43.8,362.8,44.6,362.8,45.6z"/>
			<path d="M368,44.6c0,1-0.8,1.9-1.9,1.9c-1,0-1.9-0.8-1.9-1.9c0-1,0.8-1.9,1.9-1.9C367.1,42.7,368,43.6,368,44.6z"/>
			<path d="M361.9,50.2c0,1-0.8,1.9-1.9,1.9c-1,0-1.9-0.8-1.9-1.9c0-1,0.8-1.9,1.9-1.9C361.1,48.3,361.9,49.2,361.9,50.2z"/>
			<path d="M366.3,51.9c0,1-0.8,1.9-1.9,1.9c-1,0-1.9-0.8-1.9-1.9s0.8-1.9,1.9-1.9C365.5,50,366.3,50.8,366.3,51.9z"/>
			<path d="M357.6,26.2c0,1-0.8,1.9-1.9,1.9c-1,0-1.9-0.8-1.9-1.9c0-1,0.8-1.9,1.9-1.9C356.8,24.3,357.6,25.2,357.6,26.2z"/>
			<path d="M362.8,26.1c0,1-0.8,1.9-1.9,1.9c-1,0-1.9-0.8-1.9-1.9c0-1,0.8-1.9,1.9-1.9C361.9,24.3,362.8,25.1,362.8,26.1z"/>
			<path d="M368,25.1c0,1-0.8,1.9-1.9,1.9c-1,0-1.9-0.8-1.9-1.9c0-1,0.8-1.9,1.9-1.9C367.1,23.2,368,24,368,25.1z"/>
			<path d="M361.9,30.7c0,1-0.8,1.9-1.9,1.9c-1,0-1.9-0.8-1.9-1.9c0-1,0.8-1.9,1.9-1.9C361.1,28.8,361.9,29.7,361.9,30.7z"/>
			<path d="M366.3,32.4c0,1-0.8,1.9-1.9,1.9c-1,0-1.9-0.8-1.9-1.9c0-1,0.8-1.9,1.9-1.9C365.5,30.5,366.3,31.3,366.3,32.4z"/>
			<path d="M216.6,163.4c0,1-0.8,1.9-1.9,1.9c-1,0-1.9-0.8-1.9-1.9c0-1,0.8-1.9,1.9-1.9C215.7,161.6,216.6,162.4,216.6,163.4z"/>
			<path d="M221.7,163.4c0,1-0.8,1.9-1.9,1.9c-1,0-1.9-0.8-1.9-1.9c0-1,0.8-1.9,1.9-1.9C220.9,161.5,221.7,162.3,221.7,163.4z"/>
			<path d="M226.9,162.3c0,1-0.8,1.9-1.9,1.9c-1,0-1.9-0.8-1.9-1.9c0-1,0.8-1.9,1.9-1.9C226.1,160.4,226.9,161.3,226.9,162.3z"/>
			<path d="M220.8,167.9c0,1-0.8,1.9-1.9,1.9c-1,0-1.9-0.8-1.9-1.9c0-1,0.8-1.9,1.9-1.9C220,166.1,220.8,166.9,220.8,167.9z"/>
			<path d="M225.3,169.6c0,1-0.8,1.9-1.9,1.9c-1,0-1.9-0.8-1.9-1.9c0-1,0.8-1.9,1.9-1.9C224.4,167.7,225.3,168.6,225.3,169.6z"/>
			<path d="M247.2,163c0,1-0.8,1.9-1.9,1.9c-1,0-1.9-0.8-1.9-1.9s0.8-1.9,1.9-1.9C246.4,161.1,247.2,161.9,247.2,163z"/>
			<path d="M252.4,162.9c0,1-0.8,1.9-1.9,1.9c-1,0-1.9-0.8-1.9-1.9s0.8-1.9,1.9-1.9C251.5,161,252.4,161.9,252.4,162.9z"/>
			<path d="M257.5,161.8c0,1-0.8,1.9-1.9,1.9c-1,0-1.9-0.8-1.9-1.9c0-1,0.8-1.9,1.9-1.9C256.7,160,257.5,160.8,257.5,161.8z"/>
			<path d="M251.5,167.5c0,1-0.8,1.9-1.9,1.9c-1,0-1.9-0.8-1.9-1.9c0-1,0.8-1.9,1.9-1.9C250.6,165.6,251.5,166.4,251.5,167.5z"/>
			<path d="M255.9,169.1c0,1-0.8,1.9-1.9,1.9c-1,0-1.9-0.8-1.9-1.9c0-1,0.8-1.9,1.9-1.9C255.1,167.3,255.9,168.1,255.9,169.1z"/>
			<path d="M284.2,166c0,1-0.8,1.9-1.9,1.9c-1,0-1.9-0.8-1.9-1.9c0-1,0.8-1.9,1.9-1.9C283.3,164.1,284.2,164.9,284.2,166z"/>
			<path d="M289.3,165.9c0,1-0.8,1.9-1.9,1.9c-1,0-1.9-0.8-1.9-1.9c0-1,0.8-1.9,1.9-1.9C288.5,164.1,289.3,164.9,289.3,165.9z"/>
			<path d="M294.5,164.9c0,1-0.8,1.9-1.9,1.9c-1,0-1.9-0.8-1.9-1.9s0.8-1.9,1.9-1.9C293.7,163,294.5,163.8,294.5,164.9z"/>
			<path d="M288.4,170.5c0,1-0.8,1.9-1.9,1.9c-1,0-1.9-0.8-1.9-1.9s0.8-1.9,1.9-1.9C287.6,168.6,288.4,169.4,288.4,170.5z"/>
			<path d="M292.9,172.1c0,1-0.8,1.9-1.9,1.9c-1,0-1.9-0.8-1.9-1.9c0-1,0.8-1.9,1.9-1.9C292,170.3,292.9,171.1,292.9,172.1z"/>
			<path d="M320,168.1c0,1-0.8,1.9-1.9,1.9c-1,0-1.9-0.8-1.9-1.9c0-1,0.8-1.9,1.9-1.9C319.1,166.2,320,167,320,168.1z"/>
			<path d="M325.1,168c0,1-0.8,1.9-1.9,1.9c-1,0-1.9-0.8-1.9-1.9c0-1,0.8-1.9,1.9-1.9C324.3,166.1,325.1,167,325.1,168z"/>
			<path d="M330.3,166.9c0,1-0.8,1.9-1.9,1.9c-1,0-1.9-0.8-1.9-1.9c0-1,0.8-1.9,1.9-1.9C329.5,165.1,330.3,165.9,330.3,166.9z"/>
			<path d="M324.2,172.6c0,1-0.8,1.9-1.9,1.9c-1,0-1.9-0.8-1.9-1.9c0-1,0.8-1.9,1.9-1.9C323.4,170.7,324.2,171.5,324.2,172.6z"/>
			<path d="M328.7,174.2c0,1-0.8,1.9-1.9,1.9c-1,0-1.9-0.8-1.9-1.9c0-1,0.8-1.9,1.9-1.9C327.8,172.4,328.7,173.2,328.7,174.2z"/>
			<path d="M119.7,168.5c0,1-0.8,1.9-1.9,1.9c-1,0-1.9-0.8-1.9-1.9s0.8-1.9,1.9-1.9C118.9,166.7,119.7,167.5,119.7,168.5z"/>
			<path d="M124.9,168.5c0,1-0.8,1.9-1.9,1.9c-1,0-1.9-0.8-1.9-1.9s0.8-1.9,1.9-1.9C124,166.6,124.9,167.4,124.9,168.5z"/>
			<path d="M130,167.4c0,1-0.8,1.9-1.9,1.9c-1,0-1.9-0.8-1.9-1.9c0-1,0.8-1.9,1.9-1.9C129.2,165.5,130,166.4,130,167.4z"/>
			<path d="M124,173c0,1-0.8,1.9-1.9,1.9c-1,0-1.9-0.8-1.9-1.9c0-1,0.8-1.9,1.9-1.9C123.1,171.2,124,172,124,173z"/>
			<path d="M128.4,174.7c0,1-0.8,1.9-1.9,1.9c-1,0-1.9-0.8-1.9-1.9s0.8-1.9,1.9-1.9C127.6,172.8,128.4,173.7,128.4,174.7z"/>
			<path d="M86.7,161.3c0,1-0.8,1.9-1.9,1.9c-1,0-1.9-0.8-1.9-1.9c0-1,0.8-1.9,1.9-1.9C85.9,159.5,86.7,160.3,86.7,161.3z"/>
			<path d="M91.9,161.3c0,1-0.8,1.9-1.9,1.9c-1,0-1.9-0.8-1.9-1.9c0-1,0.8-1.9,1.9-1.9C91,159.4,91.9,160.2,91.9,161.3z"/>
			<ellipse cx="95.2" cy="160.2" rx="1.9" ry="1.9"/>
			<path d="M91,165.8c0,1-0.8,1.9-1.9,1.9c-1,0-1.9-0.8-1.9-1.9c0-1,0.8-1.9,1.9-1.9C90.2,164,91,164.8,91,165.8z"/>
			<path d="M95.4,167.5c0,1-0.8,1.9-1.9,1.9c-1,0-1.9-0.8-1.9-1.9c0-1,0.8-1.9,1.9-1.9C94.6,165.6,95.4,166.5,95.4,167.5z"/>
			<path d="M98.2,171.1c0,1-0.8,1.9-1.9,1.9c-1,0-1.9-0.8-1.9-1.9c0-1,0.8-1.9,1.9-1.9C97.4,169.2,98.2,170.1,98.2,171.1z"/>
			<path d="M103.3,171c0,1-0.8,1.9-1.9,1.9c-1,0-1.9-0.8-1.9-1.9c0-1,0.8-1.9,1.9-1.9C102.5,169.2,103.3,170,103.3,171z"/>
			<path d="M108.5,170c0,1-0.8,1.9-1.9,1.9c-1,0-1.9-0.8-1.9-1.9c0-1,0.8-1.9,1.9-1.9C107.7,168.1,108.5,168.9,108.5,170z"/>
			<path d="M102.5,175.6c0,1-0.8,1.9-1.9,1.9c-1,0-1.9-0.8-1.9-1.9c0-1,0.8-1.9,1.9-1.9C101.6,173.7,102.5,174.6,102.5,175.6z"/>
			<path d="M106.9,177.3c0,1-0.8,1.9-1.9,1.9c-1,0-1.9-0.8-1.9-1.9c0-1,0.8-1.9,1.9-1.9C106.1,175.4,106.9,176.2,106.9,177.3z"/>
			<path d="M57.3,170.4c0,1-0.8,1.9-1.9,1.9c-1,0-1.9-0.8-1.9-1.9s0.8-1.9,1.9-1.9C56.4,168.5,57.3,169.4,57.3,170.4z"/>
			<path d="M62.4,170.3c0,1-0.8,1.9-1.9,1.9c-1,0-1.9-0.8-1.9-1.9c0-1,0.8-1.9,1.9-1.9C61.6,168.5,62.4,169.3,62.4,170.3z"/>
			<path d="M67.6,169.3c0,1-0.8,1.9-1.9,1.9c-1,0-1.9-0.8-1.9-1.9s0.8-1.9,1.9-1.9C66.7,167.4,67.6,168.2,67.6,169.3z"/>
			<path d="M61.5,174.9c0,1-0.8,1.9-1.9,1.9c-1,0-1.9-0.8-1.9-1.9c0-1,0.8-1.9,1.9-1.9C60.7,173,61.5,173.9,61.5,174.9z"/>
			<path d="M66,176.6c0,1-0.8,1.9-1.9,1.9c-1,0-1.9-0.8-1.9-1.9c0-1,0.8-1.9,1.9-1.9C65.1,174.7,66,175.5,66,176.6z"/>
			<path d="M78.3,165.7c0,1-0.8,1.9-1.9,1.9c-1,0-1.9-0.8-1.9-1.9c0-1,0.8-1.9,1.9-1.9C77.5,163.9,78.3,164.7,78.3,165.7z"/>
			<path d="M83.5,165.7c0,1-0.8,1.9-1.9,1.9c-1,0-1.9-0.8-1.9-1.9s0.8-1.9,1.9-1.9C82.6,163.8,83.5,164.7,83.5,165.7z"/>
			<path d="M88.6,164.6c0,1-0.8,1.9-1.9,1.9c-1,0-1.9-0.8-1.9-1.9c0-1,0.8-1.9,1.9-1.9C87.8,162.8,88.6,163.6,88.6,164.6z"/>
			<path d="M82.6,170.2c0,1-0.8,1.9-1.9,1.9c-1,0-1.9-0.8-1.9-1.9c0-1,0.8-1.9,1.9-1.9C81.7,168.4,82.6,169.2,82.6,170.2z"/>
			<path d="M87,171.9c0,1-0.8,1.9-1.9,1.9c-1,0-1.9-0.8-1.9-1.9s0.8-1.9,1.9-1.9C86.2,170.1,87,170.9,87,171.9z"/>
			<path d="M31.5,168.5c0,1-0.8,1.9-1.9,1.9c-1,0-1.9-0.8-1.9-1.9s0.8-1.9,1.9-1.9C30.7,166.7,31.5,167.5,31.5,168.5z"/>
			<path d="M36.7,168.5c0,1-0.8,1.9-1.9,1.9c-1,0-1.9-0.8-1.9-1.9s0.8-1.9,1.9-1.9C35.8,166.6,36.7,167.4,36.7,168.5z"/>
			<path d="M41.8,167.4c0,1-0.8,1.9-1.9,1.9c-1,0-1.9-0.8-1.9-1.9c0-1,0.8-1.9,1.9-1.9C41,165.5,41.8,166.4,41.8,167.4z"/>
			<path d="M35.8,173c0,1-0.8,1.9-1.9,1.9c-1,0-1.9-0.8-1.9-1.9c0-1,0.8-1.9,1.9-1.9C34.9,171.2,35.8,172,35.8,173z"/>
			<path d="M40.2,174.7c0,1-0.8,1.9-1.9,1.9c-1,0-1.9-0.8-1.9-1.9s0.8-1.9,1.9-1.9C39.4,172.8,40.2,173.7,40.2,174.7z"/>
			<path d="M17,161.8c0,1-0.8,1.9-1.9,1.9c-1,0-1.9-0.8-1.9-1.9c0-1,0.8-1.9,1.9-1.9C16.2,159.9,17,160.8,17,161.8z"/>
			<path d="M22.2,161.7c0,1-0.8,1.9-1.9,1.9c-1,0-1.9-0.8-1.9-1.9c0-1,0.8-1.9,1.9-1.9C21.3,159.9,22.2,160.7,22.2,161.7z"/>
			<path d="M27.3,160.7c0,1-0.8,1.9-1.9,1.9c-1,0-1.9-0.8-1.9-1.9c0-1,0.8-1.9,1.9-1.9C26.5,158.8,27.3,159.6,27.3,160.7z"/>
			<path d="M21.3,166.3c0,1-0.8,1.9-1.9,1.9c-1,0-1.9-0.8-1.9-1.9c0-1,0.8-1.9,1.9-1.9C20.4,164.4,21.3,165.3,21.3,166.3z"/>
			<path d="M25.7,168c0,1-0.8,1.9-1.9,1.9c-1,0-1.9-0.8-1.9-1.9c0-1,0.8-1.9,1.9-1.9C24.9,166.1,25.7,166.9,25.7,168z"/>
			<path d="M6.3,133.7c0,1-0.8,1.9-1.9,1.9c-1,0-1.9-0.8-1.9-1.9c0-1,0.8-1.9,1.9-1.9C5.4,131.8,6.3,132.7,6.3,133.7z"/>
			<path d="M11.4,133.6c0,1-0.8,1.9-1.9,1.9c-1,0-1.9-0.8-1.9-1.9c0-1,0.8-1.9,1.9-1.9C10.6,131.8,11.4,132.6,11.4,133.6z"/>
			<path d="M16.6,132.6c0,1-0.8,1.9-1.9,1.9c-1,0-1.9-0.8-1.9-1.9c0-1,0.8-1.9,1.9-1.9C15.7,130.7,16.6,131.6,16.6,132.6z"/>
			<path d="M10.5,138.2c0,1-0.8,1.9-1.9,1.9c-1,0-1.9-0.8-1.9-1.9s0.8-1.9,1.9-1.9C9.7,136.3,10.5,137.2,10.5,138.2z"/>
			<path d="M15,139.9c0,1-0.8,1.9-1.9,1.9c-1,0-1.9-0.8-1.9-1.9c0-1,0.8-1.9,1.9-1.9C14.1,138,15,138.8,15,139.9z"/>
			<path d="M15.4,123.7c0,1-0.8,1.9-1.9,1.9c-1,0-1.9-0.8-1.9-1.9c0-1,0.8-1.9,1.9-1.9C14.6,121.9,15.4,122.7,15.4,123.7z"/>
			<path d="M20.5,123.7c0,1-0.8,1.9-1.9,1.9c-1,0-1.9-0.8-1.9-1.9c0-1,0.8-1.9,1.9-1.9C19.7,121.8,20.5,122.6,20.5,123.7z"/>
			<path d="M25.7,122.6c0,1-0.8,1.9-1.9,1.9c-1,0-1.9-0.8-1.9-1.9c0-1,0.8-1.9,1.9-1.9C24.9,120.7,25.7,121.6,25.7,122.6z"/>
			<path d="M19.6,128.2c0,1-0.8,1.9-1.9,1.9c-1,0-1.9-0.8-1.9-1.9c0-1,0.8-1.9,1.9-1.9C18.8,126.4,19.6,127.2,19.6,128.2z"/>
			<path d="M113.1,159.7c0,1-0.8,1.9-1.9,1.9c-1,0-1.9-0.8-1.9-1.9c0-1,0.8-1.9,1.9-1.9C112.3,157.8,113.1,158.6,113.1,159.7z"/>
			<path d="M112.4,167c0,1-0.8,1.9-1.9,1.9c-1,0-1.9-0.8-1.9-1.9c0-1,0.8-1.9,1.9-1.9C111.5,165.1,112.4,165.9,112.4,167z"/>
			<path d="M113.9,163.6c0,1-0.8,1.9-1.9,1.9c-1,0-1.9-0.8-1.9-1.9c0-1,0.8-1.9,1.9-1.9C113,161.7,113.9,162.5,113.9,163.6z"/>
			<path d="M119,163.5c0,1-0.8,1.9-1.9,1.9c-1,0-1.9-0.8-1.9-1.9c0-1,0.8-1.9,1.9-1.9C118.2,161.6,119,162.5,119,163.5z"/>
			<path d="M118.1,168.1c0,1-0.8,1.9-1.9,1.9c-1,0-1.9-0.8-1.9-1.9c0-1,0.8-1.9,1.9-1.9C117.3,166.2,118.1,167,118.1,168.1z"/>
			<path d="M135.9,164.7c0,1-0.8,1.9-1.9,1.9c-1,0-1.9-0.8-1.9-1.9c0-1,0.8-1.9,1.9-1.9C135.1,162.9,135.9,163.7,135.9,164.7z"/>
			<path d="M135.1,172c0,1-0.8,1.9-1.9,1.9c-1,0-1.9-0.8-1.9-1.9c0-1,0.8-1.9,1.9-1.9C134.3,170.1,135.1,171,135.1,172z"/>
			<path d="M136.6,168.6c0,1-0.8,1.9-1.9,1.9c-1,0-1.9-0.8-1.9-1.9c0-1,0.8-1.9,1.9-1.9C135.8,166.7,136.6,167.6,136.6,168.6z"/>
			<path d="M141.8,168.5c0,1-0.8,1.9-1.9,1.9c-1,0-1.9-0.8-1.9-1.9c0-1,0.8-1.9,1.9-1.9C140.9,166.7,141.8,167.5,141.8,168.5z"/>
			<path d="M140.9,173.1c0,1-0.8,1.9-1.9,1.9c-1,0-1.9-0.8-1.9-1.9c0-1,0.8-1.9,1.9-1.9C140,171.2,140.9,172.1,140.9,173.1z"/>
			<path d="M164.5,159.7c0,1-0.8,1.9-1.9,1.9c-1,0-1.9-0.8-1.9-1.9c0-1,0.8-1.9,1.9-1.9C163.6,157.8,164.5,158.6,164.5,159.7z"/>
			<path d="M163.7,167c0,1-0.8,1.9-1.9,1.9c-1,0-1.9-0.8-1.9-1.9c0-1,0.8-1.9,1.9-1.9C162.9,165.1,163.7,165.9,163.7,167z"/>
			<path d="M165.2,163.6c0,1-0.8,1.9-1.9,1.9c-1,0-1.9-0.8-1.9-1.9c0-1,0.8-1.9,1.9-1.9C164.4,161.7,165.2,162.5,165.2,163.6z"/>
			<path d="M170.3,163.5c0,1-0.8,1.9-1.9,1.9c-1,0-1.9-0.8-1.9-1.9c0-1,0.8-1.9,1.9-1.9C169.5,161.6,170.3,162.5,170.3,163.5z"/>
			<path d="M169.4,168.1c0,1-0.8,1.9-1.9,1.9c-1,0-1.9-0.8-1.9-1.9c0-1,0.8-1.9,1.9-1.9C168.6,166.2,169.4,167,169.4,168.1z"/>
			<path d="M192.1,166.4c0,1-0.8,1.9-1.9,1.9c-1,0-1.9-0.8-1.9-1.9c0-1,0.8-1.9,1.9-1.9C191.3,164.5,192.1,165.4,192.1,166.4z"/>
			<path d="M191.3,173.7c0,1-0.8,1.9-1.9,1.9c-1,0-1.9-0.8-1.9-1.9c0-1,0.8-1.9,1.9-1.9C190.5,171.8,191.3,172.7,191.3,173.7z"/>
			<path d="M192.8,170.3c0,1-0.8,1.9-1.9,1.9c-1,0-1.9-0.8-1.9-1.9c0-1,0.8-1.9,1.9-1.9C192,168.4,192.8,169.3,192.8,170.3z"/>
			<path d="M197.9,170.2c0,1-0.8,1.9-1.9,1.9c-1,0-1.9-0.8-1.9-1.9c0-1,0.8-1.9,1.9-1.9C197.1,168.4,197.9,169.2,197.9,170.2z"/>
			<path d="M197.1,174.8c0,1-0.8,1.9-1.9,1.9c-1,0-1.9-0.8-1.9-1.9c0-1,0.8-1.9,1.9-1.9C196.2,172.9,197.1,173.8,197.1,174.8z"/>
			<path d="M198.4,160.6c0,1-0.8,1.9-1.9,1.9c-1,0-1.9-0.8-1.9-1.9c0-1,0.8-1.9,1.9-1.9C197.6,158.8,198.4,159.6,198.4,160.6z"/>
			<path d="M197.6,167.9c0,1-0.8,1.9-1.9,1.9c-1,0-1.9-0.8-1.9-1.9c0-1,0.8-1.9,1.9-1.9C196.8,166.1,197.6,166.9,197.6,167.9z"/>
			<path d="M199.1,164.5c0,1-0.8,1.9-1.9,1.9c-1,0-1.9-0.8-1.9-1.9c0-1,0.8-1.9,1.9-1.9C198.3,162.7,199.1,163.5,199.1,164.5z"/>
			<path d="M204.2,164.5c0,1-0.8,1.9-1.9,1.9c-1,0-1.9-0.8-1.9-1.9c0-1,0.8-1.9,1.9-1.9C203.4,162.6,204.2,163.4,204.2,164.5z"/>
			<path d="M203.4,169c0,1-0.8,1.9-1.9,1.9c-1,0-1.9-0.8-1.9-1.9c0-1,0.8-1.9,1.9-1.9C202.5,167.2,203.4,168,203.4,169z"/>
			<path d="M273.7,166.6c0,1-0.8,1.9-1.9,1.9c-1,0-1.9-0.8-1.9-1.9c0-1,0.8-1.9,1.9-1.9C272.9,164.8,273.7,165.6,273.7,166.6z"/>
			<path d="M272.9,173.9c0,1-0.8,1.9-1.9,1.9c-1,0-1.9-0.8-1.9-1.9c0-1,0.8-1.9,1.9-1.9C272.1,172.1,272.9,172.9,272.9,173.9z"/>
			<ellipse cx="272.6" cy="170.5" rx="1.9" ry="1.9"/>
			<path d="M279.6,170.5c0,1-0.8,1.9-1.9,1.9c-1,0-1.9-0.8-1.9-1.9c0-1,0.8-1.9,1.9-1.9C278.7,168.6,279.6,169.4,279.6,170.5z"/>
			<path d="M278.7,175c0,1-0.8,1.9-1.9,1.9c-1,0-1.9-0.8-1.9-1.9s0.8-1.9,1.9-1.9C277.8,173.2,278.7,174,278.7,175z"/>
			<path d="M359.4,151.3c0,1-0.8,1.9-1.9,1.9c-1,0-1.9-0.8-1.9-1.9c0-1,0.8-1.9,1.9-1.9C358.6,149.4,359.4,150.2,359.4,151.3z"/>
			<path d="M358.7,158.5c0,1-0.8,1.9-1.9,1.9c-1,0-1.9-0.8-1.9-1.9c0-1,0.8-1.9,1.9-1.9C357.8,156.7,358.7,157.5,358.7,158.5z"/>
			<path d="M360.2,155.1c0,1-0.8,1.9-1.9,1.9c-1,0-1.9-0.8-1.9-1.9c0-1,0.8-1.9,1.9-1.9C359.3,153.3,360.2,154.1,360.2,155.1z"/>
			<path d="M365.3,155.1c0,1-0.8,1.9-1.9,1.9c-1,0-1.9-0.8-1.9-1.9c0-1,0.8-1.9,1.9-1.9C364.5,153.2,365.3,154.1,365.3,155.1z"/>
			<path d="M364.4,159.6c0,1-0.8,1.9-1.9,1.9c-1,0-1.9-0.8-1.9-1.9c0-1,0.8-1.9,1.9-1.9C363.6,157.8,364.4,158.6,364.4,159.6z"/>
			<path d="M369.6,84.4c0,1-0.8,1.9-1.9,1.9c-1,0-1.9-0.8-1.9-1.9c0-1,0.8-1.9,1.9-1.9C368.8,82.6,369.6,83.4,369.6,84.4z"/>
			<path d="M368.9,91.7c0,1-0.8,1.9-1.9,1.9c-1,0-1.9-0.8-1.9-1.9c0-1,0.8-1.9,1.9-1.9C368,89.9,368.9,90.7,368.9,91.7z"/>
			<path d="M370.3,88.3c0,1-0.8,1.9-1.9,1.9c-1,0-1.9-0.8-1.9-1.9c0-1,0.8-1.9,1.9-1.9C369.5,86.5,370.3,87.3,370.3,88.3z"/>
			<path d="M375.5,88.3c0,1-0.8,1.9-1.9,1.9c-1,0-1.9-0.8-1.9-1.9c0-1,0.8-1.9,1.9-1.9C374.6,86.4,375.5,87.2,375.5,88.3z"/>
			<path d="M374.6,92.8c0,1-0.8,1.9-1.9,1.9c-1,0-1.9-0.8-1.9-1.9c0-1,0.8-1.9,1.9-1.9C373.7,91,374.6,91.8,374.6,92.8z"/>
			<path d="M369.9,114.5c0,1-0.8,1.9-1.9,1.9c-1,0-1.9-0.8-1.9-1.9c0-1,0.8-1.9,1.9-1.9C369,112.6,369.9,113.5,369.9,114.5z"/>
			<path d="M369.1,121.8c0,1-0.8,1.9-1.9,1.9c-1,0-1.9-0.8-1.9-1.9c0-1,0.8-1.9,1.9-1.9C368.3,119.9,369.1,120.7,369.1,121.8z"/>
			<path d="M370.6,118.4c0,1-0.8,1.9-1.9,1.9c-1,0-1.9-0.8-1.9-1.9c0-1,0.8-1.9,1.9-1.9C369.7,116.5,370.6,117.3,370.6,118.4z"/>
			<path d="M375.7,118.3c0,1-0.8,1.9-1.9,1.9c-1,0-1.9-0.8-1.9-1.9c0-1,0.8-1.9,1.9-1.9C374.9,116.5,375.7,117.3,375.7,118.3z"/>
			<path d="M374.8,122.9c0,1-0.8,1.9-1.9,1.9c-1,0-1.9-0.8-1.9-1.9c0-1,0.8-1.9,1.9-1.9C374,121,374.8,121.8,374.8,122.9z"/>
			<path d="M19.7,93.1c0,1-0.8,1.9-1.9,1.9c-1,0-1.9-0.8-1.9-1.9c0-1,0.8-1.9,1.9-1.9C18.8,91.2,19.7,92.1,19.7,93.1z"/>
			<path d="M18.9,100.4c0,1-0.8,1.9-1.9,1.9c-1,0-1.9-0.8-1.9-1.9c0-1,0.8-1.9,1.9-1.9C18,98.5,18.9,99.3,18.9,100.4z"/>
			<path d="M20.4,97c0,1-0.8,1.9-1.9,1.9c-1,0-1.9-0.8-1.9-1.9c0-1,0.8-1.9,1.9-1.9C19.5,95.1,20.4,95.9,20.4,97z"/>
			<path d="M25.5,96.9c0,1-0.8,1.9-1.9,1.9c-1,0-1.9-0.8-1.9-1.9c0-1,0.8-1.9,1.9-1.9C24.7,95.1,25.5,95.9,25.5,96.9z"/>
			<path d="M24.6,101.5c0,1-0.8,1.9-1.9,1.9c-1,0-1.9-0.8-1.9-1.9c0-1,0.8-1.9,1.9-1.9C23.8,99.6,24.6,100.4,24.6,101.5z"/>
			<path d="M50.9,158.2c0,1-0.8,1.9-1.9,1.9s-1.9-0.8-1.9-1.9c0-1,0.8-1.9,1.9-1.9S50.9,157.2,50.9,158.2z"/>
			<path d="M50.1,165.5c0,1-0.8,1.9-1.9,1.9c-1,0-1.9-0.8-1.9-1.9c0-1,0.8-1.9,1.9-1.9C49.3,163.7,50.1,164.5,50.1,165.5z"/>
			<path d="M51.6,162.1c0,1-0.8,1.9-1.9,1.9c-1,0-1.9-0.8-1.9-1.9c0-1,0.8-1.9,1.9-1.9C50.8,160.3,51.6,161.1,51.6,162.1z"/>
			<path d="M56.8,162.1c0,1-0.8,1.9-1.9,1.9c-1,0-1.9-0.8-1.9-1.9c0-1,0.8-1.9,1.9-1.9C55.9,160.2,56.8,161,56.8,162.1z"/>
			<path d="M55.9,166.6c0,1-0.8,1.9-1.9,1.9c-1,0-1.9-0.8-1.9-1.9c0-1,0.8-1.9,1.9-1.9C55,164.8,55.9,165.6,55.9,166.6z"/>
			<path d="M24.1,129.9c0,1-0.8,1.9-1.9,1.9c-1,0-1.9-0.8-1.9-1.9c0-1,0.8-1.9,1.9-1.9C23.2,128,24.1,128.9,24.1,129.9z"/>
			<path d="M14.2,104.4c0,1-0.8,1.9-1.9,1.9c-1,0-1.9-0.8-1.9-1.9c0-1,0.8-1.9,1.9-1.9C13.4,102.6,14.2,103.4,14.2,104.4z"/>
			<path d="M19.4,104.4c0,1-0.8,1.9-1.9,1.9c-1,0-1.9-0.8-1.9-1.9c0-1,0.8-1.9,1.9-1.9C18.5,102.5,19.4,103.4,19.4,104.4z"/>
			<path d="M24.5,103.3c0,1-0.8,1.9-1.9,1.9c-1,0-1.9-0.8-1.9-1.9c0-1,0.8-1.9,1.9-1.9C23.7,101.5,24.5,102.3,24.5,103.3z"/>
			<path d="M18.5,108.9c0,1-0.8,1.9-1.9,1.9c-1,0-1.9-0.8-1.9-1.9c0-1,0.8-1.9,1.9-1.9C17.6,107.1,18.5,107.9,18.5,108.9z"/>
			<path d="M22.9,110.6c0,1-0.8,1.9-1.9,1.9c-1,0-1.9-0.8-1.9-1.9c0-1,0.8-1.9,1.9-1.9C22.1,108.8,22.9,109.6,22.9,110.6z"/>
			<path d="M6.7,92.8c0,1-0.8,1.9-1.9,1.9c-1,0-1.9-0.8-1.9-1.9c0-1,0.8-1.9,1.9-1.9C5.9,91,6.7,91.8,6.7,92.8z"/>
			<path d="M11.9,92.8c0,1-0.8,1.9-1.9,1.9c-1,0-1.9-0.8-1.9-1.9c0-1,0.8-1.9,1.9-1.9C11,90.9,11.9,91.8,11.9,92.8z"/>
			<path d="M17,91.7c0,1-0.8,1.9-1.9,1.9c-1,0-1.9-0.8-1.9-1.9c0-1,0.8-1.9,1.9-1.9C16.2,89.9,17,90.7,17,91.7z"/>
			<path d="M11,97.3c0,1-0.8,1.9-1.9,1.9c-1,0-1.9-0.8-1.9-1.9c0-1,0.8-1.9,1.9-1.9C10.1,95.5,11,96.3,11,97.3z"/>
			<path d="M15.4,99c0,1-0.8,1.9-1.9,1.9c-1,0-1.9-0.8-1.9-1.9c0-1,0.8-1.9,1.9-1.9C14.6,97.1,15.4,98,15.4,99z"/>
			<path d="M16.3,74.7c0,1-0.8,1.9-1.9,1.9s-1.9-0.8-1.9-1.9c0-1,0.8-1.9,1.9-1.9S16.3,73.7,16.3,74.7z"/>
			<path d="M21.5,74.7c0,1-0.8,1.9-1.9,1.9c-1,0-1.9-0.8-1.9-1.9c0-1,0.8-1.9,1.9-1.9C20.6,72.8,21.5,73.6,21.5,74.7z"/>
			<path d="M26.6,73.6c0,1-0.8,1.9-1.9,1.9c-1,0-1.9-0.8-1.9-1.9c0-1,0.8-1.9,1.9-1.9C25.8,71.7,26.6,72.6,26.6,73.6z"/>
			<path d="M20.6,79.2c0,1-0.8,1.9-1.9,1.9c-1,0-1.9-0.8-1.9-1.9c0-1,0.8-1.9,1.9-1.9C19.7,77.4,20.6,78.2,20.6,79.2z"/>
			<path d="M25,80.9c0,1-0.8,1.9-1.9,1.9c-1,0-1.9-0.8-1.9-1.9c0-1,0.8-1.9,1.9-1.9C24.2,79,25,79.9,25,80.9z"/>
			<path d="M5.6,62c0,1-0.8,1.9-1.9,1.9c-1,0-1.9-0.8-1.9-1.9c0-1,0.8-1.9,1.9-1.9C4.7,60.1,5.6,60.9,5.6,62z"/>
			<path d="M10.7,61.9c0,1-0.8,1.9-1.9,1.9c-1,0-1.9-0.8-1.9-1.9c0-1,0.8-1.9,1.9-1.9C9.9,60,10.7,60.9,10.7,61.9z"/>
			<path d="M15.9,60.8c0,1-0.8,1.9-1.9,1.9c-1,0-1.9-0.8-1.9-1.9c0-1,0.8-1.9,1.9-1.9C15,59,15.9,59.8,15.9,60.8z"/>
			<path d="M9.8,66.5c0,1-0.8,1.9-1.9,1.9c-1,0-1.9-0.8-1.9-1.9c0-1,0.8-1.9,1.9-1.9C9,64.6,9.8,65.4,9.8,66.5z"/>
			<path d="M14.3,68.1c0,1-0.8,1.9-1.9,1.9c-1,0-1.9-0.8-1.9-1.9c0-1,0.8-1.9,1.9-1.9C13.4,66.3,14.3,67.1,14.3,68.1z"/>
			<path d="M15.2,46.6c0,1-0.8,1.9-1.9,1.9c-1,0-1.9-0.8-1.9-1.9c0-1,0.8-1.9,1.9-1.9C14.3,44.8,15.2,45.6,15.2,46.6z"/>
			<path d="M20.3,46.6c0,1-0.8,1.9-1.9,1.9c-1,0-1.9-0.8-1.9-1.9c0-1,0.8-1.9,1.9-1.9C19.5,44.7,20.3,45.5,20.3,46.6z"/>
			<path d="M25.5,45.5c0,1-0.8,1.9-1.9,1.9c-1,0-1.9-0.8-1.9-1.9c0-1,0.8-1.9,1.9-1.9C24.6,43.6,25.5,44.5,25.5,45.5z"/>
			<path d="M19.4,51.1c0,1-0.8,1.9-1.9,1.9c-1,0-1.9-0.8-1.9-1.9c0-1,0.8-1.9,1.9-1.9C18.6,49.3,19.4,50.1,19.4,51.1z"/>
			<path d="M23.8,52.8c0,1-0.8,1.9-1.9,1.9c-1,0-1.9-0.8-1.9-1.9s0.8-1.9,1.9-1.9C23,50.9,23.8,51.8,23.8,52.8z"/>
			<path d="M15.9,26c0,1-0.8,1.9-1.9,1.9c-1,0-1.9-0.8-1.9-1.9c0-1,0.8-1.9,1.9-1.9C15,24.1,15.9,24.9,15.9,26z"/>
			<path d="M21,25.9c0,1-0.8,1.9-1.9,1.9c-1,0-1.9-0.8-1.9-1.9c0-1,0.8-1.9,1.9-1.9C20.2,24,21,24.9,21,25.9z"/>
			<path d="M26.2,24.8c0,1-0.8,1.9-1.9,1.9c-1,0-1.9-0.8-1.9-1.9c0-1,0.8-1.9,1.9-1.9C25.3,23,26.2,23.8,26.2,24.8z"/>
			<path d="M20.1,30.5c0,1-0.8,1.9-1.9,1.9c-1,0-1.9-0.8-1.9-1.9c0-1,0.8-1.9,1.9-1.9C19.3,28.6,20.1,29.4,20.1,30.5z"/>
			<path d="M24.5,32.1c0,1-0.8,1.9-1.9,1.9c-1,0-1.9-0.8-1.9-1.9c0-1,0.8-1.9,1.9-1.9C23.7,30.3,24.5,31.1,24.5,32.1z"/>
			<path d="M8.1,14.1c0,1-0.8,1.9-1.9,1.9c-1,0-1.9-0.8-1.9-1.9c0-1,0.8-1.9,1.9-1.9C7.3,12.3,8.1,13.1,8.1,14.1z"/>
			<path d="M13.3,14.1c0,1-0.8,1.9-1.9,1.9c-1,0-1.9-0.8-1.9-1.9c0-1,0.8-1.9,1.9-1.9C12.4,12.2,13.3,13,13.3,14.1z"/>
			<path d="M18.5,13c0,1-0.8,1.9-1.9,1.9c-1,0-1.9-0.8-1.9-1.9c0-1,0.8-1.9,1.9-1.9C17.6,11.1,18.5,12,18.5,13z"/>
			<path d="M12.4,18.6c0,1-0.8,1.9-1.9,1.9c-1,0-1.9-0.8-1.9-1.9c0-1,0.8-1.9,1.9-1.9C11.5,16.8,12.4,17.6,12.4,18.6z"/>
			<path d="M16.8,20.3c0,1-0.8,1.9-1.9,1.9c-1,0-1.9-0.8-1.9-1.9c0-1,0.8-1.9,1.9-1.9C16,18.4,16.8,19.3,16.8,20.3z"/>
			<path d="M283.7,171.8c0,1-0.8,1.9-1.9,1.9c-1,0-1.9-0.8-1.9-1.9c0-1,0.8-1.9,1.9-1.9C282.9,170,283.7,170.8,283.7,171.8z"/>
			<path d="M283.4,160.3c0,1-0.8,1.9-1.9,1.9c-1,0-1.9-0.8-1.9-1.9c0-1,0.8-1.9,1.9-1.9C282.5,158.4,283.4,159.2,283.4,160.3z"/>
			<path d="M286.5,157.9c1,0,1.9,0.8,1.9,1.9c0,1-0.8,1.9-1.9,1.9c-1,0-1.9-0.8-1.9-1.9C284.6,158.7,285.4,157.9,286.5,157.9z"/>
			<path d="M295.4,157.2c1,0,1.9,0.8,1.9,1.9c0,1-0.8,1.9-1.9,1.9c-1,0-1.9-0.8-1.9-1.9C293.6,158,294.4,157.2,295.4,157.2z"/>
			<path d="M295.5,161.7c1,0,1.9,0.8,1.9,1.9c0,1-0.8,1.9-1.9,1.9c-1,0-1.9-0.8-1.9-1.9C293.6,162.5,294.5,161.7,295.5,161.7z"/>
			<path d="M294.8,168.5c1,0,1.9,0.8,1.9,1.9c0,1-0.8,1.9-1.9,1.9c-1,0-1.9-0.8-1.9-1.9C292.9,169.3,293.8,168.5,294.8,168.5z"/>
			<path d="M300.5,162.9c1,0,1.9,0.8,1.9,1.9c0,1-0.8,1.9-1.9,1.9c-1,0-1.9-0.8-1.9-1.9C298.6,163.7,299.4,162.9,300.5,162.9z"/>
			<path d="M308.1,162.4c1,0,1.9,0.8,1.9,1.9s-0.8,1.9-1.9,1.9c-1,0-1.9-0.8-1.9-1.9S307.1,162.4,308.1,162.4z"/>
			<path d="M307.9,170.9c1,0,1.9,0.8,1.9,1.9c0,1-0.8,1.9-1.9,1.9c-1,0-1.9-0.8-1.9-1.9C306,171.7,306.9,170.9,307.9,170.9z"/>
			<path d="M315.1,173c1,0,1.9,0.8,1.9,1.9c0,1-0.8,1.9-1.9,1.9c-1,0-1.9-0.8-1.9-1.9C313.2,173.8,314,173,315.1,173z"/>
			<path d="M321.1,158.1c1,0,1.9,0.8,1.9,1.9c0,1-0.8,1.9-1.9,1.9c-1,0-1.9-0.8-1.9-1.9C319.2,158.9,320.1,158.1,321.1,158.1z"/>
			<path d="M327,162.8c1,0,1.9,0.8,1.9,1.9c0,1-0.8,1.9-1.9,1.9c-1,0-1.9-0.8-1.9-1.9C325.1,163.6,325.9,162.8,327,162.8z"/>
			<path d="M335.9,166.5c1,0,1.9,0.8,1.9,1.9c0,1-0.8,1.9-1.9,1.9c-1,0-1.9-0.8-1.9-1.9C334,167.3,334.9,166.5,335.9,166.5z"/>
			<path d="M339.4,162.5c1,0,1.9,0.8,1.9,1.9c0,1-0.8,1.9-1.9,1.9c-1,0-1.9-0.8-1.9-1.9C337.6,163.3,338.4,162.5,339.4,162.5z"/>
			<path d="M345.7,167.4c1,0,1.9,0.8,1.9,1.9s-0.8,1.9-1.9,1.9c-1,0-1.9-0.8-1.9-1.9S344.6,167.4,345.7,167.4z"/>
			<path d="M341.7,172.9c1,0,1.9,0.8,1.9,1.9c0,1-0.8,1.9-1.9,1.9c-1,0-1.9-0.8-1.9-1.9C339.8,173.7,340.7,172.9,341.7,172.9z"/>
			<path d="M347.7,173.9c1,0,1.9,0.8,1.9,1.9c0,1-0.8,1.9-1.9,1.9c-1,0-1.9-0.8-1.9-1.9C345.8,174.8,346.6,173.9,347.7,173.9z"/>
			<path d="M353.3,165.2c1,0,1.9,0.8,1.9,1.9c0,1-0.8,1.9-1.9,1.9c-1,0-1.9-0.8-1.9-1.9C351.5,166,352.3,165.2,353.3,165.2z"/>
			<path d="M349.4,158.6c1,0,1.9,0.8,1.9,1.9c0,1-0.8,1.9-1.9,1.9c-1,0-1.9-0.8-1.9-1.9C347.5,159.4,348.4,158.6,349.4,158.6z"/>
			<path d="M362,162c1,0,1.9,0.8,1.9,1.9c0,1-0.8,1.9-1.9,1.9c-1,0-1.9-0.8-1.9-1.9C360.1,162.9,360.9,162,362,162z"/>
			<path d="M363.2,171.2c1,0,1.9,0.8,1.9,1.9c0,1-0.8,1.9-1.9,1.9c-1,0-1.9-0.8-1.9-1.9C361.3,172.1,362.2,171.2,363.2,171.2z"/>
			<path d="M367.5,170c1,0,1.9,0.8,1.9,1.9c0,1-0.8,1.9-1.9,1.9c-1,0-1.9-0.8-1.9-1.9C365.7,170.8,366.5,170,367.5,170z"/>
			<path d="M373.3,170.8c1,0,1.9,0.8,1.9,1.9c0,1-0.8,1.9-1.9,1.9c-1,0-1.9-0.8-1.9-1.9C371.5,171.7,372.3,170.8,373.3,170.8z"/>
			<path d="M372.2,164.9c1,0,1.9,0.8,1.9,1.9s-0.8,1.9-1.9,1.9c-1,0-1.9-0.8-1.9-1.9S371.2,164.9,372.2,164.9z"/>
			<path d="M374.9,153.3c1,0,1.9,0.8,1.9,1.9c0,1-0.8,1.9-1.9,1.9c-1,0-1.9-0.8-1.9-1.9C373.1,154.1,373.9,153.3,374.9,153.3z"/>
			<path d="M365.3,151.6c1,0,1.9,0.8,1.9,1.9c0,1-0.8,1.9-1.9,1.9c-1,0-1.9-0.8-1.9-1.9C363.4,152.4,364.2,151.6,365.3,151.6z"/>
			<path d="M367.2,146.1c1,0,1.9,0.8,1.9,1.9s-0.8,1.9-1.9,1.9c-1,0-1.9-0.8-1.9-1.9S366.2,146.1,367.2,146.1z"/>
			<path d="M362.1,139c1,0,1.9,0.8,1.9,1.9c0,1-0.8,1.9-1.9,1.9c-1,0-1.9-0.8-1.9-1.9C360.2,139.8,361.1,139,362.1,139z"/>
			<path d="M357.6,138.6c1,0,1.9,0.8,1.9,1.9s-0.8,1.9-1.9,1.9c-1,0-1.9-0.8-1.9-1.9S356.6,138.6,357.6,138.6z"/>
			<path d="M358.5,122.6c1,0,1.9,0.8,1.9,1.9c0,1-0.8,1.9-1.9,1.9c-1,0-1.9-0.8-1.9-1.9C356.6,123.4,357.4,122.6,358.5,122.6z"/>
			<path d="M357.3,117.6c1,0,1.9,0.8,1.9,1.9c0,1-0.8,1.9-1.9,1.9c-1,0-1.9-0.8-1.9-1.9C355.5,118.5,356.3,117.6,357.3,117.6z"/>
			<path d="M357.9,112.2c1,0,1.9,0.8,1.9,1.9c0,1-0.8,1.9-1.9,1.9c-1,0-1.9-0.8-1.9-1.9C356.1,113,356.9,112.2,357.9,112.2z"/>
			<path d="M364.6,118.3c1,0,1.9,0.8,1.9,1.9c0,1-0.8,1.9-1.9,1.9c-1,0-1.9-0.8-1.9-1.9C362.7,119.2,363.5,118.3,364.6,118.3z"/>
			<path d="M367.5,122.4c1,0,1.9,0.8,1.9,1.9c0,1-0.8,1.9-1.9,1.9c-1,0-1.9-0.8-1.9-1.9C365.6,123.2,366.5,122.4,367.5,122.4z"/>
			<path d="M368.9,133.6c1,0,1.9,0.8,1.9,1.9c0,1-0.8,1.9-1.9,1.9c-1,0-1.9-0.8-1.9-1.9C367,134.4,367.9,133.6,368.9,133.6z"/>
			<path d="M370.4,106.9c1,0,1.9,0.8,1.9,1.9c0,1-0.8,1.9-1.9,1.9c-1,0-1.9-0.8-1.9-1.9C368.5,107.7,369.4,106.9,370.4,106.9z"/>
			<path d="M364.2,105c1,0,1.9,0.8,1.9,1.9c0,1-0.8,1.9-1.9,1.9c-1,0-1.9-0.8-1.9-1.9C362.3,105.8,363.1,105,364.2,105z"/>
			<path d="M371.2,95c1,0,1.9,0.8,1.9,1.9c0,1-0.8,1.9-1.9,1.9c-1,0-1.9-0.8-1.9-1.9C369.3,95.9,370.1,95,371.2,95z"/>
			<path d="M375.9,97.4c1,0,1.9,0.8,1.9,1.9c0,1-0.8,1.9-1.9,1.9c-1,0-1.9-0.8-1.9-1.9C374,98.3,374.9,97.4,375.9,97.4z"/>
			<path d="M356.5,95.9c1,0,1.9,0.8,1.9,1.9c0,1-0.8,1.9-1.9,1.9c-1,0-1.9-0.8-1.9-1.9C354.6,96.8,355.5,95.9,356.5,95.9z"/>
			<path d="M361.6,90.3c1,0,1.9,0.8,1.9,1.9c0,1-0.8,1.9-1.9,1.9c-1,0-1.9-0.8-1.9-1.9C359.7,91.2,360.5,90.3,361.6,90.3z"/>
			<path d="M359.6,87.1c-0.7-0.7-0.7-1.9,0-2.6c0.7-0.7,1.9-0.7,2.7,0c0.7,0.7,0.7,1.9,0,2.6C361.5,87.8,360.3,87.8,359.6,87.1z"/>
			<path d="M364.2,82c-0.7-0.7-0.7-1.9,0-2.6c0.7-0.7,1.9-0.7,2.7,0c0.7,0.7,0.7,1.9,0,2.6C366.1,82.7,364.9,82.7,364.2,82z"/>
			<path d="M355.9,78c-0.7-0.7-0.7-1.9,0-2.6c0.7-0.7,1.9-0.7,2.7,0c0.7,0.7,0.7,1.9,0,2.6C357.8,78.7,356.6,78.7,355.9,78z"/>
			<path d="M355.1,68.7c-1-0.2-1.7-1.1-1.5-2.2c0.2-1,1.2-1.7,2.2-1.5c1,0.2,1.7,1.1,1.5,2.2C357.1,68.2,356.1,68.8,355.1,68.7z"/>
			<path d="M364.2,69.5c-1-0.2-1.7-1.1-1.5-2.2c0.2-1,1.2-1.7,2.2-1.5c1,0.2,1.7,1.1,1.5,2.2C366.2,69,365.2,69.6,364.2,69.5z"/>
			<path d="M371.1,67.6c-1-0.2-1.7-1.1-1.5-2.2c0.2-1,1.2-1.7,2.2-1.5c1,0.2,1.7,1.1,1.5,2.2C373.1,67.1,372.2,67.8,371.1,67.6z"/>
			<path d="M367.6,64.8c-1-0.2-1.7-1.1-1.5-2.2c0.2-1,1.2-1.7,2.2-1.5c1,0.2,1.7,1.1,1.5,2.2C369.6,64.3,368.6,64.9,367.6,64.8z"/>
			<path d="M367.1,59.8c-1-0.2-1.7-1.1-1.5-2.2c0.2-1,1.2-1.7,2.2-1.5c1,0.2,1.7,1.1,1.5,2.2C369,59.3,368.1,60,367.1,59.8z"/>
			<path d="M360.8,56.7c-1-0.2-1.7-1.1-1.5-2.2c0.2-1,1.2-1.7,2.2-1.5c1,0.2,1.7,1.1,1.5,2.2C362.8,56.2,361.8,56.9,360.8,56.7z"/>
			<path d="M370.6,55.4c-1-0.2-1.7-1.1-1.5-2.2c0.2-1,1.2-1.7,2.2-1.5c1,0.2,1.7,1.1,1.5,2.2C372.6,54.9,371.7,55.6,370.6,55.4z"/>
			<path d="M374.8,58.5c-1-0.2-1.7-1.1-1.5-2.2c0.2-1,1.2-1.7,2.2-1.5c1,0.2,1.7,1.1,1.5,2.2C376.8,58,375.8,58.7,374.8,58.5z"/>
			<path d="M358.9,40.5c-1-0.2-1.7-1.1-1.5-2.2c0.2-1,1.2-1.7,2.2-1.5c1,0.2,1.7,1.1,1.5,2.2C360.9,40,359.9,40.7,358.9,40.5z"/>
			<path d="M366.7,40.2c-1-0.2-1.7-1.1-1.5-2.2c0.2-1,1.2-1.7,2.2-1.5c1,0.2,1.7,1.1,1.5,2.2C368.7,39.7,367.7,40.4,366.7,40.2z"/>
			<path d="M365,25c-1-0.2-1.7-1.1-1.5-2.2c0.2-1,1.2-1.7,2.2-1.5c1,0.2,1.7,1.1,1.5,2.2C367,24.5,366,25.2,365,25z"/>
			<path d="M370.5,26.8c-1-0.2-1.7-1.1-1.5-2.2c0.2-1,1.2-1.7,2.2-1.5c1,0.2,1.7,1.1,1.5,2.2C372.5,26.3,371.5,27,370.5,26.8z"/>
			<path d="M372.1,31c-1-0.2-1.7-1.1-1.5-2.2c0.2-1,1.2-1.7,2.2-1.5c1,0.2,1.7,1.1,1.5,2.2C374.1,30.5,373.1,31.2,372.1,31z"/>
			<path d="M373.9,23.1c-1-0.2-1.7-1.1-1.5-2.2c0.2-1,1.2-1.7,2.2-1.5c1,0.2,1.7,1.1,1.5,2.2C375.9,22.6,374.9,23.3,373.9,23.1z"/>
			<path d="M369.2,19.5c-1-0.2-1.7-1.1-1.5-2.2c0.2-1,1.2-1.7,2.2-1.5c1,0.2,1.7,1.1,1.5,2.2C371.2,19,370.2,19.7,369.2,19.5z"/>
			<path d="M368.6,14.2c-1-0.2-1.7-1.1-1.5-2.2c0.2-1,1.2-1.7,2.2-1.5c1,0.2,1.7,1.1,1.5,2.2C370.6,13.7,369.6,14.4,368.6,14.2z"/>
			<path d="M362.2,12.4c-1-0.2-1.7-1.1-1.5-2.2c0.2-1,1.2-1.7,2.2-1.5c1,0.2,1.7,1.1,1.5,2.2C364.1,11.9,363.2,12.6,362.2,12.4z"/>
			<path d="M370.1,7.7c-1-0.2-1.7-1.1-1.5-2.2c0.2-1,1.2-1.7,2.2-1.5c1,0.2,1.7,1.1,1.5,2.2C372.1,7.3,371.1,7.9,370.1,7.7z"/>
			<path d="M357.1,16.5c-1-0.2-1.7-1.1-1.5-2.2c0.2-1,1.2-1.7,2.2-1.5c1,0.2,1.7,1.1,1.5,2.2C359.1,16,358.1,16.7,357.1,16.5z"/>
			<path d="M168.3,174.6c0.3,1-0.3,2-1.3,2.3c-1,0.3-2-0.3-2.3-1.3c-0.3-1,0.3-2,1.3-2.3C167,173,168,173.6,168.3,174.6z"/>
			<path d="M71.3,172.3c0,1-0.8,1.9-1.9,1.9c-1,0-1.9-0.8-1.9-1.9s0.8-1.9,1.9-1.9C70.5,170.5,71.3,171.3,71.3,172.3z"/>
		</g>
	</g>
</g>
</svg>
