<?xml version="1.0" encoding="utf-8"?>
<!-- Generator: Adobe Illustrator 27.9.0, SVG Export Plug-In . SVG Version: 6.00 Build 0)  -->
<svg version="1.1" id="레이어_1" xmlns="http://www.w3.org/2000/svg" xmlns:xlink="http://www.w3.org/1999/xlink" x="0px"
	 y="0px" viewBox="0 0 80 140" style="enable-background:new 0 0 80 140;" xml:space="preserve">
<style type="text/css">
	.st0{fill:#FFFFFF;}
</style>
<g>
	<g>
		<polygon class="st0" points="61.8,119.7 46.5,139.8 78,139.8 		"/>
		<polygon class="st0" points="9.6,19 1.5,30.5 18.9,30.7 		"/>
		<path class="st0" d="M11.9,50.4h23.4c0,0-2.6,8.2-7.9,9.5c-5.3,1.3-8.2,0.3-11.3-1.5C12.9,56.7,11.9,50.4,11.9,50.4z"/>
		<g>
			<g>
				<path d="M19.6,31.6H0l9.8-14L19.6,31.6z M2.9,30.1h13.8l-6.9-9.9L2.9,30.1z"/>
				<path d="M80,140H44.1l17.9-21.6L80,140z M47.3,138.5h29.5l-14.7-17.8L47.3,138.5z"/>
				<polygon points="62.8,120.6 61.3,120.6 61.3,1.5 10.5,1.5 10.5,18.8 9,18.8 9,0 62.8,0 				"/>
				<polygon points="61.9,74.1 22.7,74.1 22.7,61.1 24.2,61.1 24.2,72.6 61.9,72.6 				"/>
				<g>
					<path d="M23.5,61.4c-6.3,0-11.5-4.7-12.4-11.1L11,49.5h25l-0.1,0.8C34.9,56.7,29.7,61.4,23.5,61.4z M12.7,50.9
						c1.1,5.2,5.5,9,10.7,9c5.2,0,9.6-3.7,10.7-9H12.7z"/>
				</g>
			</g>
		</g>
	</g>
</g>
</svg>
