<?xml version="1.0" encoding="utf-8"?>
<!-- Generator: Adobe Illustrator 27.9.0, SVG Export Plug-In . SVG Version: 6.00 Build 0)  -->
<svg version="1.1" id="레이어_1" xmlns="http://www.w3.org/2000/svg" xmlns:xlink="http://www.w3.org/1999/xlink" x="0px"
	 y="0px" viewBox="0 0 28 102" style="enable-background:new 0 0 28 102;" xml:space="preserve">
<style type="text/css">
	.st0{fill:#FFFFFF;}
</style>
<g>
	<g>
		<polygon class="st0" points="0.9,0.3 0.9,29 7,29 7,92 1,101.6 26.4,101.6 20.4,91.4 20.4,28.4 27.1,28.4 27.1,0.7 		"/>
		<g>
			<g>
				<path d="M27.4,29.3H0.6V0h26.8V29.3z M2.1,27.8h23.9V1.5H2.1V27.8z"/>
				<polygon points="21.8,93 6.2,93 6.2,29.1 7.7,29.1 7.7,91.5 20.3,91.5 20.3,29.1 21.8,29.1 				"/>
				<g>
					<polygon points="28,102 0,102 6.4,92 7.6,92.8 2.7,100.5 25.3,100.5 20.4,92.8 21.6,92 					"/>
				</g>
			</g>
		</g>
	</g>
</g>
</svg>
